<?xml version="1.0" encoding="utf-8" standalone="no"?>
<!DOCTYPE svg PUBLIC "-//W3C//DTD SVG 1.1//EN"
  "http://www.w3.org/Graphics/SVG/1.1/DTD/svg11.dtd">
<svg xmlns:xlink="http://www.w3.org/1999/xlink" width="432pt" height="288pt" viewBox="0 0 432 288" xmlns="http://www.w3.org/2000/svg" version="1.1">
 <metadata>
  <rdf:RDF xmlns:dc="http://purl.org/dc/elements/1.1/" xmlns:cc="http://creativecommons.org/ns#" xmlns:rdf="http://www.w3.org/1999/02/22-rdf-syntax-ns#">
   <cc:Work>
    <dc:type rdf:resource="http://purl.org/dc/dcmitype/StillImage"/>
    <dc:date>2024-10-15T15:21:29.866344</dc:date>
    <dc:format>image/svg+xml</dc:format>
    <dc:creator>
     <cc:Agent>
      <dc:title>Matplotlib v3.9.0, https://matplotlib.org/</dc:title>
     </cc:Agent>
    </dc:creator>
   </cc:Work>
  </rdf:RDF>
 </metadata>
 <defs>
  <style type="text/css">*{stroke-linejoin: round; stroke-linecap: butt}</style>
 </defs>
 <g id="figure_1">
  <g id="patch_1">
   <path d="M 0 288 
L 432 288 
L 432 0 
L 0 0 
z
" style="fill: #ffffff"/>
  </g>
  <g id="axes_1">
   <g id="line2d_1">
    <path d="M 314.629195 145.440864 
L 314.516371 141.245962 
L 314.177431 137.054365 
L 313.610977 132.869494 
L 312.814684 128.694998 
L 311.7853 124.534877 
L 310.518655 120.393607 
L 309.009677 116.276277 
L 307.408491 112.528063 
L 305.593457 108.810035 
L 303.558775 105.128117 
L 301.298096 101.489112 
L 298.80458 97.900824 
L 296.070954 94.372207 
L 293.089596 90.913514 
L 290.157683 87.839753 
L 287.008548 84.843415 
L 283.636239 81.935703 
L 280.034966 79.129172 
L 276.19926 76.437843 
L 272.542569 74.127011 
L 268.688844 71.934667 
L 264.635604 69.87454 
L 260.381184 67.961589 
L 255.924936 66.21204 
L 251.267466 64.643416 
L 246.960235 63.416152 
L 242.498325 62.360743 
L 237.885694 61.492001 
L 233.127781 60.825436 
L 228.231697 60.377177 
L 223.206432 60.163856 
L 218.712003 60.183278 
L 214.135949 60.407089 
L 209.488552 60.846786 
L 204.781621 61.513722 
L 200.028576 62.418955 
L 195.244516 63.573075 
L 190.446264 64.986003 
L 186.336207 66.409958 
L 182.242042 68.035775 
L 178.177395 69.867796 
L 174.156774 71.909536 
L 170.195513 74.163557 
L 166.309706 76.631355 
L 162.516108 79.313241 
L 158.832029 82.208227 
L 155.275195 85.313927 
L 151.863594 88.626463 
L 148.615305 92.14039 
L 146.046129 95.217454 
L 143.613103 98.424526 
L 141.326244 101.755832 
L 139.195242 105.2048 
L 137.229369 108.764069 
L 135.437393 112.425517 
L 133.827483 116.180297 
L 132.407123 120.018877 
L 131.183034 123.9311 
L 130.161096 127.906244 
L 129.346278 131.933099 
L 128.742585 136.000049 
L 128.353008 140.095155 
L 128.179487 144.206253 
L 128.222889 148.321049 
L 128.482997 152.42722 
L 128.958512 156.512512 
L 129.647072 160.564841 
L 130.545274 164.572385 
L 131.648721 168.52368 
L 132.952073 172.407702 
L 134.449104 176.213947 
L 136.132779 179.932501 
L 137.995329 183.5541 
L 140.028336 187.070181 
L 142.22282 190.472924 
L 144.569328 193.755281 
L 147.058031 196.910997 
L 150.217907 200.523073 
L 153.55011 203.937085 
L 157.036586 207.146784 
L 160.659279 210.147516 
L 164.40031 212.936161 
L 168.242145 215.511043 
L 172.167734 217.871837 
L 176.160642 220.019461 
L 180.205142 221.955958 
L 184.286307 223.684384 
L 188.390065 225.20868 
L 193.188817 226.735353 
L 197.981121 227.999222 
L 202.749406 229.009859 
L 207.477841 229.777591 
L 212.152291 230.313299 
L 216.760266 230.62823 
L 221.290842 230.733836 
L 226.361815 230.612985 
L 231.307501 230.250856 
L 236.118158 229.664235 
L 240.785993 228.869457 
L 245.304963 227.882274 
L 249.670576 226.717766 
L 254.394733 225.213568 
L 258.918191 223.522317 
L 263.239872 221.661966 
L 267.360034 219.649174 
L 271.280024 217.499317 
L 275.002074 215.226529 
L 278.909107 212.57273 
L 282.580155 209.799217 
L 286.020557 206.920476 
L 289.236023 203.949491 
L 292.232473 200.897856 
L 295.282752 197.4602 
L 298.083173 193.949578 
L 300.641436 190.376624 
L 302.964918 186.750631 
L 305.060585 183.079703 
L 306.934923 179.370901 
L 308.593889 175.630377 
L 310.164347 171.519912 
L 311.491064 167.384123 
L 312.579338 163.228274 
L 313.433563 159.05698 
L 314.057222 154.874349 
L 314.452873 150.684106 
L 314.622146 146.489718 
L 314.629195 145.440864 
L 314.629195 145.440864 
" clip-path="url(#p9b7a6edc62)" style="fill: none; stroke-dasharray: 1,1.65; stroke-dashoffset: 0; stroke: #000000"/>
   </g>
   <g id="line2d_2">
    <path d="M 301.513127 189.063768 
L 303.752985 185.420555 
L 305.767446 181.735088 
L 307.562807 178.014083 
L 309.14482 174.263392 
L 310.633388 170.143855 
L 311.88008 166.000829 
L 312.889894 161.839347 
L 313.666922 157.663839 
L 314.21434 153.478272 
L 314.534396 149.286271 
L 314.628412 145.091244 
L 314.496775 140.89649 
L 314.138942 136.705321 
L 313.553437 132.521171 
L 312.737856 128.347714 
L 311.688872 124.188985 
L 310.402239 120.049507 
L 308.872809 115.934424 
L 307.252407 112.18873 
L 305.417654 108.473727 
L 303.362696 104.795416 
L 301.513127 101.81796 
L 301.513127 101.81796 
" clip-path="url(#p9b7a6edc62)" style="fill: none; stroke: #00bfff; stroke-opacity: 0.5; stroke-width: 30; stroke-linecap: round"/>
   </g>
   <g id="line2d_3">
    <path d="M 271.280024 73.382411 
L 270.854292 73.13722 
L 270.426112 72.893563 
L 269.99548 72.651461 
L 269.562394 72.410931 
L 269.12685 72.171993 
L 268.688844 71.934667 
L 268.248375 71.698972 
L 267.805439 71.464928 
L 267.360034 71.232555 
L 266.912156 71.001872 
L 266.461804 70.772901 
L 266.008974 70.545661 
L 265.553666 70.320174 
L 265.095877 70.09646 
L 264.635604 69.87454 
L 264.172847 69.654436 
L 263.707604 69.43617 
L 263.239872 69.219762 
L 262.769652 69.005235 
L 262.296942 68.79261 
L 261.821741 68.581911 
L 261.344047 68.373159 
L 260.863862 68.166377 
L 260.381184 67.961589 
L 259.896012 67.758816 
L 259.408348 67.558082 
L 258.918191 67.359411 
L 258.425542 67.162827 
L 257.9304 66.968353 
L 257.432768 66.776012 
L 256.932646 66.585831 
L 256.430034 66.397832 
L 255.924936 66.21204 
L 255.417351 66.028481 
L 254.907283 65.847179 
L 254.394733 65.66816 
L 253.879704 65.491449 
L 253.362198 65.317071 
L 252.842217 65.145053 
L 252.319766 64.97542 
L 251.794848 64.808199 
L 251.267466 64.643416 
L 250.737623 64.481098 
L 250.205325 64.321271 
L 249.670576 64.163962 
L 249.13338 64.009199 
L 248.593743 63.857008 
L 248.051669 63.707419 
L 247.507164 63.560457 
L 246.960235 63.416152 
L 246.410887 63.274531 
L 245.859128 63.135622 
L 245.304963 62.999455 
L 244.7484 62.866057 
L 244.189447 62.735458 
L 243.628111 62.607686 
L 243.064401 62.482772 
L 242.498325 62.360743 
L 241.929892 62.24163 
L 241.359111 62.125463 
L 240.785993 62.012271 
L 240.210546 61.902085 
L 239.632782 61.794934 
L 239.052711 61.69085 
L 238.470345 61.589862 
L 237.885694 61.492001 
L 237.298771 61.397299 
L 236.709588 61.305786 
L 236.118158 61.217493 
L 235.524494 61.132452 
L 234.928611 61.050694 
L 234.330521 60.972251 
L 233.730239 60.897155 
L 233.127781 60.825436 
L 232.523161 60.757129 
L 231.916396 60.692263 
L 231.307501 60.630873 
L 230.696495 60.572989 
L 230.083393 60.518645 
L 229.468214 60.467873 
L 228.850976 60.420706 
L 228.231697 60.377177 
L 227.610398 60.337318 
L 226.987097 60.301162 
L 226.361815 60.268743 
L 225.734572 60.240093 
L 225.10539 60.215246 
L 224.474292 60.194236 
L 223.841298 60.177094 
L 223.206432 60.163856 
L 222.569718 60.154554 
L 221.93118 60.149221 
L 221.290842 60.147892 
L 220.648729 60.150599 
L 220.004867 60.157377 
L 219.359283 60.168259 
L 218.712003 60.183278 
L 218.063054 60.202469 
L 217.412466 60.225864 
L 216.760266 60.253498 
L 216.106484 60.285404 
L 215.451151 60.321616 
L 214.794295 60.362166 
L 214.135949 60.407089 
L 213.476145 60.456419 
L 212.814915 60.510187 
L 212.152291 60.568429 
L 211.488308 60.631176 
L 210.823001 60.698463 
L 210.156404 60.770322 
L 209.488552 60.846786 
L 208.819483 60.927888 
L 208.149233 61.013661 
L 207.477841 61.104137 
L 206.805344 61.199349 
L 206.131781 61.299329 
L 205.457194 61.404109 
L 204.781621 61.513722 
L 204.105104 61.628198 
L 203.427685 61.74757 
" clip-path="url(#p9b7a6edc62)" style="fill: none; stroke: #32cd32; stroke-opacity: 0.5; stroke-width: 20; stroke-linecap: round"/>
   </g>
   <g id="line2d_4">
    <path d="M 203.427685 229.134158 
L 204.105104 229.25353 
L 204.781621 229.368007 
L 205.457194 229.477619 
L 206.131781 229.582399 
L 206.805344 229.68238 
L 207.477841 229.777591 
L 208.149233 229.868068 
L 208.819483 229.95384 
L 209.488552 230.034942 
L 210.156404 230.111406 
L 210.823001 230.183265 
L 211.488308 230.250552 
L 212.152291 230.313299 
L 212.814915 230.371541 
L 213.476145 230.42531 
L 214.135949 230.474639 
L 214.794295 230.519562 
L 215.451151 230.560113 
L 216.106484 230.596324 
L 216.760266 230.62823 
L 217.412466 230.655864 
L 218.063054 230.679259 
L 218.712003 230.69845 
L 219.359283 230.713469 
L 220.004867 230.724351 
L 220.648729 230.731129 
L 221.290842 230.733836 
L 221.93118 230.732507 
L 222.569718 230.727175 
L 223.206432 230.717872 
L 223.841298 230.704634 
L 224.474292 230.687492 
L 225.10539 230.666482 
L 225.734572 230.641635 
L 226.361815 230.612985 
L 226.987097 230.580566 
L 227.610398 230.544411 
L 228.231697 230.504552 
L 228.850976 230.461022 
L 229.468214 230.413855 
L 230.083393 230.363083 
L 230.696495 230.308739 
L 231.307501 230.250856 
L 231.916396 230.189465 
L 232.523161 230.1246 
L 233.127781 230.056292 
L 233.730239 229.984574 
L 234.330521 229.909477 
L 234.928611 229.831034 
L 235.524494 229.749276 
L 236.118158 229.664235 
L 236.709588 229.575943 
L 237.298771 229.484429 
L 237.885694 229.389727 
L 238.470345 229.291866 
L 239.052711 229.190878 
L 239.632782 229.086794 
L 240.210546 228.979643 
L 240.785993 228.869457 
L 241.359111 228.756265 
L 241.929892 228.640098 
L 242.498325 228.520985 
L 243.064401 228.398957 
L 243.628111 228.274042 
L 244.189447 228.14627 
L 244.7484 228.015671 
L 245.304963 227.882274 
L 245.859128 227.746106 
L 246.410887 227.607198 
L 246.960235 227.465576 
L 247.507164 227.321271 
L 248.051669 227.17431 
L 248.593743 227.02472 
L 249.13338 226.87253 
L 249.670576 226.717766 
L 250.205325 226.560458 
L 250.737623 226.400631 
L 251.267466 226.238312 
L 251.794848 226.073529 
L 252.319766 225.906308 
L 252.842217 225.736675 
L 253.362198 225.564657 
L 253.879704 225.390279 
L 254.394733 225.213568 
L 254.907283 225.034549 
L 255.417351 224.853247 
L 255.924936 224.669688 
L 256.430034 224.483896 
L 256.932646 224.295898 
L 257.432768 224.105716 
L 257.9304 223.913376 
L 258.425542 223.718901 
L 258.918191 223.522317 
L 259.408348 223.323646 
L 259.896012 223.122912 
L 260.381184 222.92014 
L 260.863862 222.715351 
L 261.344047 222.508569 
L 261.821741 222.299817 
L 262.296942 222.089118 
L 262.769652 221.876493 
L 263.239872 221.661966 
L 263.707604 221.445558 
L 264.172847 221.227292 
L 264.635604 221.007188 
L 265.095877 220.785268 
L 265.553666 220.561554 
L 266.008974 220.336067 
L 266.461804 220.108828 
L 266.912156 219.879856 
L 267.360034 219.649174 
L 267.805439 219.4168 
L 268.248375 219.182756 
L 268.688844 218.947061 
L 269.12685 218.709735 
L 269.562394 218.470797 
L 269.99548 218.230268 
L 270.426112 217.988165 
L 270.854292 217.744508 
L 271.280024 217.499317 
" clip-path="url(#p9b7a6edc62)" style="fill: none; stroke: #32cd32; stroke-opacity: 0.5; stroke-width: 20; stroke-linecap: round"/>
   </g>
   <g id="line2d_5">
    <path d="M 283.636239 208.946025 
L 287.008548 206.038313 
L 290.157683 203.041975 
L 293.089596 199.968214 
L 296.070954 196.509521 
L 298.80458 192.980904 
L 301.298096 189.392616 
L 303.558775 185.753611 
L 305.593457 182.071694 
L 307.408491 178.353665 
L 309.009677 174.605451 
L 310.518655 170.488121 
L 311.7853 166.346851 
L 312.814684 162.18673 
L 313.610977 158.012234 
L 314.177431 153.827363 
L 314.516371 149.635766 
L 314.629195 145.440864 
L 314.629195 145.440864 
L 314.516371 141.245962 
L 314.177431 137.054365 
L 313.610977 132.869494 
L 312.814684 128.694998 
L 311.7853 124.534877 
L 310.518655 120.393607 
L 309.009677 116.276277 
L 307.408491 112.528063 
L 305.593457 108.810035 
L 303.558775 105.128117 
L 301.298096 101.489112 
L 298.80458 97.900824 
L 296.070954 94.372207 
L 293.089596 90.913514 
L 290.157683 87.839753 
L 287.008548 84.843415 
L 283.636239 81.935703 
L 283.636239 81.935703 
" clip-path="url(#p9b7a6edc62)" style="fill: none; stroke: #32cd32; stroke-opacity: 0.5; stroke-width: 20; stroke-linecap: round"/>
   </g>
   <g id="line2d_6">
    <path d="M 128.170805 145.852418 
L 128.300976 149.965241 
L 128.647463 154.064524 
L 129.208539 158.138068 
L 129.98142 162.173884 
L 130.962302 166.160281 
L 132.146403 170.085962 
L 133.52802 173.940103 
L 135.100596 177.712426 
L 136.856792 181.393271 
L 138.788569 184.97365 
L 140.887272 188.445291 
L 143.143723 191.800681 
L 145.548307 195.033088 
L 148.091067 198.136576 
L 151.310383 201.683426 
L 154.696021 205.029948 
L 158.229904 208.170431 
L 161.894015 211.100741 
L 165.670575 213.818249 
L 169.542194 216.321741 
L 173.492016 218.611318 
L 177.50383 220.688287 
L 181.56217 222.555042 
L 185.652385 224.214945 
L 189.760701 225.672211 
L 194.559506 227.122873 
L 199.346664 228.313376 
L 204.105104 229.25353 
L 208.819483 229.95384 
L 213.476145 230.42531 
L 218.063054 230.679259 
L 222.569718 230.727175 
L 227.610398 230.544411 
L 232.523161 230.1246 
L 237.298771 229.484429 
L 241.929892 228.640098 
L 246.410887 227.607198 
L 250.737623 226.400631 
L 255.417351 224.853247 
L 259.896012 223.122912 
L 264.172847 221.227292 
L 268.248375 219.182756 
L 272.124159 217.004403 
L 276.19926 214.443885 
L 280.034966 211.752556 
L 283.636239 208.946025 
L 287.008548 206.038313 
L 290.157683 203.041975 
L 293.089596 199.968214 
L 296.070954 196.509521 
L 298.80458 192.980904 
L 301.298096 189.392616 
L 303.558775 185.753611 
L 305.593457 182.071694 
L 307.408491 178.353665 
L 309.009677 174.605451 
L 310.518655 170.488121 
L 311.7853 166.346851 
L 312.814684 162.18673 
L 313.610977 158.012234 
L 314.177431 153.827363 
L 314.516371 149.635766 
L 314.629195 145.440864 
L 314.629195 145.440864 
" clip-path="url(#p9b7a6edc62)" style="fill: none; stroke: #9400d3; stroke-opacity: 0.5; stroke-width: 10; stroke-linecap: round"/>
   </g>
   <g id="line2d_7">
    <path d="M 314.629195 145.440864 
" clip-path="url(#p9b7a6edc62)" style="fill: none; stroke: #000000; stroke-width: 5; stroke-linecap: round"/>
   </g>
   <g id="line2d_8">
    <path d="M 301.513127 189.063768 
L 303.752985 185.420555 
L 305.767446 181.735088 
L 307.562807 178.014083 
L 309.14482 174.263392 
L 310.633388 170.143855 
L 311.88008 166.000829 
L 312.889894 161.839347 
L 313.666922 157.663839 
L 314.21434 153.478272 
L 314.534396 149.286271 
L 314.629195 145.440864 
L 314.629195 145.440864 
" clip-path="url(#p9b7a6edc62)" style="fill: none; stroke: #000000; stroke-width: 5; stroke-linecap: round"/>
   </g>
   <g id="patch_2">
    <path d="M 259.040964 147.411033 
C 259.563459 147.411033 260.064624 147.203444 260.434084 146.833984 
C 260.803544 146.464524 261.011133 145.963359 261.011133 145.440864 
C 261.011133 144.918369 260.803544 144.417204 260.434084 144.047744 
C 260.064624 143.678284 259.563459 143.470695 259.040964 143.470695 
C 258.518469 143.470695 258.017304 143.678284 257.647844 144.047744 
C 257.278384 144.417204 257.070795 144.918369 257.070795 145.440864 
C 257.070795 145.963359 257.278384 146.464524 257.647844 146.833984 
C 258.017304 147.203444 258.518469 147.411033 259.040964 147.411033 
z
" clip-path="url(#p9b7a6edc62)" style="fill: #ff69b4; stroke: #ff69b4; stroke-linejoin: miter"/>
   </g>
  </g>
 </g>
 <defs>
  <clipPath id="p9b7a6edc62">
   <rect x="109.641394" y="34.56" width="223.517211" height="221.76"/>
  </clipPath>
 </defs>
</svg>
