<?xml version="1.0" encoding="utf-8" standalone="no"?>
<!DOCTYPE svg PUBLIC "-//W3C//DTD SVG 1.1//EN"
  "http://www.w3.org/Graphics/SVG/1.1/DTD/svg11.dtd">
<svg xmlns:xlink="http://www.w3.org/1999/xlink" width="432pt" height="288pt" viewBox="0 0 432 288" xmlns="http://www.w3.org/2000/svg" version="1.1">
 <metadata>
  <rdf:RDF xmlns:dc="http://purl.org/dc/elements/1.1/" xmlns:cc="http://creativecommons.org/ns#" xmlns:rdf="http://www.w3.org/1999/02/22-rdf-syntax-ns#">
   <cc:Work>
    <dc:type rdf:resource="http://purl.org/dc/dcmitype/StillImage"/>
    <dc:date>2024-10-15T15:43:39.747305</dc:date>
    <dc:format>image/svg+xml</dc:format>
    <dc:creator>
     <cc:Agent>
      <dc:title>Matplotlib v3.9.0, https://matplotlib.org/</dc:title>
     </cc:Agent>
    </dc:creator>
   </cc:Work>
  </rdf:RDF>
 </metadata>
 <defs>
  <style type="text/css">*{stroke-linejoin: round; stroke-linecap: butt}</style>
 </defs>
 <g id="figure_1">
  <g id="patch_1">
   <path d="M 0 288 
L 432 288 
L 432 0 
L 0 0 
z
" style="fill: #ffffff"/>
  </g>
  <g id="axes_1">
   <g id="line2d_1">
    <path d="M 364.432245 145.442552 
L 364.320276 142.068312 
L 363.981682 138.677854 
L 363.408269 135.254779 
L 362.635738 131.966595 
L 361.622454 128.619422 
L 360.344939 125.198064 
L 358.868281 121.884453 
L 357.095888 118.476838 
L 355.120946 115.171132 
L 352.96099 111.974398 
L 350.459103 108.673214 
L 347.770046 105.489656 
L 344.68748 102.200212 
L 341.419734 99.046141 
L 338.005635 96.047162 
L 334.154541 92.963949 
L 330.186797 90.065792 
L 325.742524 87.10376 
L 321.234177 84.362705 
L 316.222502 81.585998 
L 311.22965 79.068565 
L 305.726691 76.549085 
L 300.36123 74.323904 
L 294.504728 72.131181 
L 288.110876 69.994177 
L 282.037121 68.192859 
L 275.48083 66.480664 
L 268.408016 64.886742 
L 261.909317 63.640986 
L 254.98716 62.533577 
L 247.624124 61.594384 
L 239.80613 60.857646 
L 232.936726 60.426296 
L 225.742881 60.187631 
L 218.226696 60.169199 
L 210.395302 60.400915 
L 203.911917 60.787921 
L 197.245274 61.37292 
L 190.408927 62.173939 
L 183.420292 63.209479 
L 176.301074 64.498264 
L 169.077675 66.05893 
L 161.781552 67.909643 
L 156.28367 69.498445 
L 150.783038 71.266895 
L 145.298994 73.221169 
L 139.852635 75.366696 
L 134.466771 77.708007 
L 129.165837 80.24857 
L 123.975768 82.990625 
L 118.923815 85.935019 
L 114.038329 89.081052 
L 109.348479 92.426333 
L 104.88393 95.966648 
L 100.674472 99.695866 
L 98.024479 102.283027 
L 95.509566 104.947665 
L 93.138108 107.686471 
L 90.918211 110.495734 
L 88.857649 113.371356 
L 86.963798 116.308856 
L 85.243581 119.303392 
L 83.703398 122.349779 
L 82.349079 125.442513 
L 81.18582 128.575798 
L 80.218145 131.743583 
L 79.449853 134.939591 
L 78.883988 138.157361 
L 78.522806 141.390291 
L 78.367755 144.631676 
L 78.419456 147.874755 
L 78.677702 151.112755 
L 79.141457 154.338938 
L 79.808867 157.546645 
L 80.67728 160.729338 
L 81.743268 163.880645 
L 83.002665 166.994395 
L 84.450607 170.064662 
L 86.081573 173.085793 
L 87.889441 176.052438 
L 89.867542 178.959582 
L 92.00872 181.802561 
L 94.305392 184.577084 
L 96.749608 187.279245 
L 99.333123 189.905533 
L 103.450967 193.696012 
L 107.83379 197.300074 
L 112.45185 200.710927 
L 117.275397 203.92373 
L 122.275057 206.935495 
L 127.422175 209.744975 
L 132.689105 212.352519 
L 138.049451 214.759919 
L 143.478262 216.970253 
L 148.952174 218.987716 
L 154.449513 220.817455 
L 159.950351 222.465414 
L 167.259118 224.391381 
L 174.503852 226.022883 
L 181.651782 227.377902 
L 188.675274 228.474996 
L 195.551486 229.332897 
L 202.261969 229.970189 
L 208.792244 230.405036 
L 216.685305 230.690571 
L 224.265282 230.719701 
L 231.523909 230.522802 
L 238.458162 230.127901 
L 246.353038 229.428561 
L 253.791032 228.520609 
L 260.785534 227.439048 
L 267.353495 226.21445 
L 274.50284 224.640133 
L 281.130846 222.942923 
L 287.271452 221.15275 
L 293.735863 219.024633 
L 299.656943 216.83749 
L 305.081352 214.615273 
L 310.644392 212.096698 
L 315.691288 209.578216 
L 320.756641 206.798668 
L 325.312694 204.053526 
L 329.803377 201.086046 
L 333.811987 198.181836 
L 337.702206 195.091674 
L 341.419734 191.838963 
L 344.68748 188.684891 
L 347.770046 185.395448 
L 350.459103 182.21189 
L 352.96099 178.910705 
L 355.253875 175.504332 
L 357.209025 172.204963 
L 358.962973 168.803267 
L 360.423329 165.494753 
L 361.685433 162.077924 
L 362.684786 158.734422 
L 363.444505 155.449081 
L 364.005262 152.028136 
L 364.331773 148.638938 
L 364.432245 145.442552 
L 364.432245 145.442552 
" clip-path="url(#p060985a781)" style="fill: none; stroke-dasharray: 1,1.65; stroke-dashoffset: 0; stroke: #000000"/>
   </g>
   <g id="line2d_2">
    <path d="M 361.558661 162.453668 
L 362.585948 159.102777 
L 363.371346 155.811706 
L 363.957454 152.386453 
L 364.308153 148.99469 
L 364.431935 145.620002 
L 364.331773 142.246165 
L 364.005262 138.856968 
L 363.444505 135.436023 
L 362.684786 132.150682 
L 361.685433 128.807179 
L 361.558661 128.431436 
L 361.558661 128.431436 
" clip-path="url(#p060985a781)" style="fill: none; stroke: #00bfff; stroke-opacity: 0.5; stroke-width: 30; stroke-linecap: round"/>
   </g>
   <g id="line2d_3">
    <path d="M 268.408016 64.886742 
L 267.353495 64.670653 
L 266.287659 64.457793 
L 265.210414 64.248277 
L 264.121669 64.042222 
L 263.021333 63.839751 
L 261.909317 63.640986 
L 260.785534 63.446055 
L 259.649897 63.255089 
L 258.502323 63.06822 
L 257.342728 62.885584 
L 256.171033 62.707322 
L 254.98716 62.533577 
L 253.791032 62.364494 
L 252.582578 62.200224 
L 251.361726 62.04092 
L 250.128408 61.886738 
L 248.882562 61.737838 
L 247.624124 61.594384 
L 246.353038 61.456543 
L 245.06925 61.324486 
L 243.772708 61.198388 
L 242.463368 61.078426 
L 241.141188 60.964784 
L 239.80613 60.857646 
L 238.458162 60.757203 
L 237.097257 60.663647 
L 235.723392 60.577176 
L 234.336552 60.497991 
L 232.936726 60.426296 
L 231.523909 60.362302 
L 230.098104 60.306219 
L 228.659319 60.258266 
L 227.207571 60.218662 
L 225.742881 60.187631 
L 224.265282 60.165402 
L 222.774813 60.152207 
L 221.27152 60.148281 
L 219.755459 60.153864 
L 218.226696 60.169199 
L 216.685305 60.194533 
L 215.13137 60.230115 
L 213.564987 60.276201 
L 211.986258 60.333047 
L 210.395302 60.400915 
L 208.792244 60.480067 
L 207.177225 60.570772 
L 205.550395 60.673299 
L 203.911917 60.787921 
L 202.261969 60.914915 
L 200.600741 61.054558 
L 198.928437 61.207132 
L 197.245274 61.37292 
L 195.551486 61.552206 
L 193.847321 61.745279 
L 192.133042 61.952427 
L 190.408927 62.173939 
L 188.675274 62.410108 
L 186.932395 62.661226 
L 185.180618 62.927585 
L 183.420292 63.209479 
L 181.651782 63.507201 
L 179.875471 63.821045 
L 178.091761 64.151302 
L 176.301074 64.498264 
L 174.503852 64.862221 
L 172.700554 65.24346 
L 170.891661 65.642269 
L 169.077675 66.05893 
L 167.259118 66.493723 
L 165.436532 66.946925 
L 163.610482 67.418809 
L 161.781552 67.909643 
L 159.950351 68.41969 
L 158.117507 68.949206 
L 156.28367 69.498445 
L 154.449513 70.067649 
L 152.615731 70.657056 
L 150.783038 71.266895 
L 148.952174 71.897388 
L 147.123899 72.548745 
L 145.298994 73.221169 
L 143.478262 73.91485 
L 141.662527 74.62997 
L 139.852635 75.366696 
L 138.049451 76.125184 
L 136.253861 76.905578 
L 134.466771 77.708007 
L 132.689105 78.532585 
L 130.921807 79.379411 
L 129.165837 80.24857 
L 127.422175 81.140128 
L 125.691815 82.054136 
L 123.975768 82.990625 
L 122.275057 83.949608 
L 120.590723 84.931081 
L 118.923815 85.935019 
L 117.275397 86.961374 
L 115.646541 88.010081 
L 114.038329 89.081052 
L 112.45185 90.174177 
L 110.8882 91.289322 
L 109.348479 92.426333 
L 107.83379 93.58503 
L 106.345239 94.765211 
L 104.88393 95.966648 
L 103.450967 97.189092 
L 102.04745 98.432264 
L 100.674472 99.695866 
L 99.333123 100.97957 
" clip-path="url(#p060985a781)" style="fill: none; stroke: #32cd32; stroke-opacity: 0.5; stroke-width: 20; stroke-linecap: round"/>
   </g>
   <g id="line2d_4">
    <path d="M 99.333123 189.905533 
L 100.674472 191.189238 
L 102.04745 192.452839 
L 103.450967 193.696012 
L 104.88393 194.918455 
L 106.345239 196.119893 
L 107.83379 197.300074 
L 109.348479 198.458771 
L 110.8882 199.595782 
L 112.45185 200.710927 
L 114.038329 201.804051 
L 115.646541 202.875022 
L 117.275397 203.92373 
L 118.923815 204.950085 
L 120.590723 205.954022 
L 122.275057 206.935495 
L 123.975768 207.894479 
L 125.691815 208.830968 
L 127.422175 209.744975 
L 129.165837 210.636534 
L 130.921807 211.505692 
L 132.689105 212.352519 
L 134.466771 213.177097 
L 136.253861 213.979525 
L 138.049451 214.759919 
L 139.852635 215.518408 
L 141.662527 216.255134 
L 143.478262 216.970253 
L 145.298994 217.663935 
L 147.123899 218.336358 
L 148.952174 218.987716 
L 150.783038 219.618208 
L 152.615731 220.228048 
L 154.449513 220.817455 
L 156.28367 221.386659 
L 158.117507 221.935897 
L 159.950351 222.465414 
L 161.781552 222.97546 
L 163.610482 223.466294 
L 165.436532 223.938178 
L 167.259118 224.391381 
L 169.077675 224.826174 
L 170.891661 225.242835 
L 172.700554 225.641643 
L 174.503852 226.022883 
L 176.301074 226.38684 
L 178.091761 226.733802 
L 179.875471 227.064059 
L 181.651782 227.377902 
L 183.420292 227.675625 
L 185.180618 227.957519 
L 186.932395 228.223878 
L 188.675274 228.474996 
L 190.408927 228.711165 
L 192.133042 228.932677 
L 193.847321 229.139825 
L 195.551486 229.332897 
L 197.245274 229.512184 
L 198.928437 229.677971 
L 200.600741 229.830545 
L 202.261969 229.970189 
L 203.911917 230.097182 
L 205.550395 230.211805 
L 207.177225 230.314332 
L 208.792244 230.405036 
L 210.395302 230.484189 
L 211.986258 230.552056 
L 213.564987 230.608902 
L 215.13137 230.654988 
L 216.685305 230.690571 
L 218.226696 230.715905 
L 219.755459 230.73124 
L 221.27152 230.736822 
L 222.774813 230.732897 
L 224.265282 230.719701 
L 225.742881 230.697473 
L 227.207571 230.666442 
L 228.659319 230.626838 
L 230.098104 230.578884 
L 231.523909 230.522802 
L 232.936726 230.458807 
L 234.336552 230.387113 
L 235.723392 230.307928 
L 237.097257 230.221457 
L 238.458162 230.127901 
L 239.80613 230.027457 
L 241.141188 229.92032 
L 242.463368 229.806677 
L 243.772708 229.686716 
L 245.06925 229.560618 
L 246.353038 229.428561 
L 247.624124 229.29072 
L 248.882562 229.147266 
L 250.128408 228.998366 
L 251.361726 228.844184 
L 252.582578 228.684879 
L 253.791032 228.520609 
L 254.98716 228.351527 
L 256.171033 228.177781 
L 257.342728 227.999519 
L 258.502323 227.816884 
L 259.649897 227.630015 
L 260.785534 227.439048 
L 261.909317 227.244118 
L 263.021333 227.045353 
L 264.121669 226.842881 
L 265.210414 226.636827 
L 266.287659 226.42731 
L 267.353495 226.21445 
L 268.408016 225.998362 
" clip-path="url(#p060985a781)" style="fill: none; stroke: #32cd32; stroke-opacity: 0.5; stroke-width: 20; stroke-linecap: round"/>
   </g>
   <g id="line2d_5">
    <path d="M 353.115109 178.694446 
L 355.385488 175.295111 
L 357.321008 172.002033 
L 359.056652 168.606205 
L 360.500817 165.30274 
L 361.747603 161.890393 
L 362.733096 158.550514 
L 363.480055 155.26797 
L 364.028193 151.84911 
L 364.342644 148.461127 
L 364.431007 145.087649 
L 364.295403 141.712467 
L 363.932575 138.319354 
L 363.333732 134.891878 
L 362.535414 131.597873 
L 361.49405 128.243218 
L 360.185429 124.812654 
L 358.675827 121.488707 
L 356.981589 118.273162 
L 354.986689 114.961072 
L 353.115109 112.190657 
L 353.115109 112.190657 
" clip-path="url(#p060985a781)" style="fill: none; stroke: #32cd32; stroke-opacity: 0.5; stroke-width: 20; stroke-linecap: round"/>
   </g>
   <g id="line2d_6">
    <path d="M 78.367755 146.253427 
L 78.522806 149.494812 
L 78.883988 152.727742 
L 79.449853 155.945513 
L 80.218145 159.141521 
L 81.18582 162.309305 
L 82.349079 165.442591 
L 83.703398 168.535324 
L 85.243581 171.581711 
L 86.963798 174.576248 
L 88.857649 177.513748 
L 90.918211 180.389369 
L 93.138108 183.198633 
L 95.509566 185.937439 
L 98.024479 188.602077 
L 102.04745 192.452839 
L 106.345239 196.119893 
L 110.8882 199.595782 
L 115.646541 202.875022 
L 120.590723 205.954022 
L 125.691815 208.830968 
L 130.921807 211.505692 
L 136.253861 213.979525 
L 141.662527 216.255134 
L 147.123899 218.336358 
L 152.615731 220.228048 
L 158.117507 221.935897 
L 165.436532 223.938178 
L 172.700554 225.641643 
L 179.875471 227.064059 
L 186.932395 228.223878 
L 193.847321 229.139825 
L 200.600741 229.830545 
L 207.177225 230.314332 
L 215.13137 230.654988 
L 222.774813 230.732897 
L 230.098104 230.578884 
L 237.097257 230.221457 
L 243.772708 229.686716 
L 251.361726 228.844184 
L 258.502323 227.816884 
L 265.210414 226.636827 
L 272.514838 225.103928 
L 279.288355 223.438532 
L 285.564743 221.672179 
L 292.172579 219.563258 
L 298.22501 217.388405 
L 303.769369 215.173006 
L 309.454699 212.657012 
L 314.611617 210.137008 
L 319.786249 207.352237 
L 324.439413 204.599238 
L 329.024554 201.621086 
L 333.116319 198.704895 
L 337.086125 195.600894 
L 340.604087 192.580782 
L 343.970105 189.404105 
L 347.14453 186.091204 
L 349.913325 182.885492 
L 352.48948 179.562279 
L 354.714146 176.345427 
L 356.749466 173.020429 
L 358.578049 169.594765 
L 360.104297 166.265578 
L 361.428616 162.830338 
L 362.48413 159.471871 
L 363.295425 156.174888 
L 363.907044 152.745142 
L 364.282025 149.350632 
L 364.429459 145.974911 
L 364.432245 145.442552 
L 364.432245 145.442552 
" clip-path="url(#p060985a781)" style="fill: none; stroke: #9400d3; stroke-opacity: 0.5; stroke-width: 10; stroke-linecap: round"/>
   </g>
   <g id="line2d_7">
    <path d="M 364.432245 145.442552 
" clip-path="url(#p060985a781)" style="fill: none; stroke: #000000; stroke-width: 5; stroke-linecap: round"/>
   </g>
   <g id="line2d_8">
    <path d="M 361.558661 162.453668 
L 361.622454 162.265682 
L 361.685433 162.077924 
L 361.747603 161.890393 
L 361.808968 161.703085 
L 361.869533 161.515998 
L 361.929302 161.32913 
L 361.988279 161.142477 
L 362.04647 160.956037 
L 362.103876 160.769807 
L 362.160504 160.583785 
L 362.216357 160.397968 
L 362.271438 160.212354 
L 362.325753 160.02694 
L 362.379303 159.841723 
L 362.432095 159.656701 
L 362.48413 159.471871 
L 362.535414 159.287231 
L 362.585948 159.102777 
L 362.635738 158.918509 
L 362.684786 158.734422 
L 362.733096 158.550514 
L 362.780672 158.366784 
L 362.827516 158.183228 
L 362.873632 157.999843 
L 362.919023 157.816628 
L 362.963692 157.633579 
L 363.007643 157.450694 
L 363.050878 157.267971 
L 363.093401 157.085408 
L 363.135213 156.903001 
L 363.17632 156.720747 
L 363.216722 156.538646 
L 363.256423 156.356693 
L 363.295425 156.174888 
L 363.333732 155.993226 
L 363.371346 155.811706 
L 363.408269 155.630325 
L 363.444505 155.449081 
L 363.480055 155.26797 
L 363.514921 155.086992 
L 363.549107 154.906143 
L 363.582615 154.72542 
L 363.615446 154.544822 
L 363.647604 154.364346 
L 363.67909 154.183989 
L 363.709906 154.00375 
L 363.740055 153.823624 
L 363.769539 153.643611 
L 363.798359 153.463708 
L 363.826518 153.283912 
L 363.854017 153.10422 
L 363.880858 152.924631 
L 363.907044 152.745142 
L 363.932575 152.56575 
L 363.957454 152.386453 
L 363.981682 152.20725 
L 364.005262 152.028136 
L 364.028193 151.84911 
L 364.050479 151.67017 
L 364.07212 151.491313 
L 364.093118 151.312536 
L 364.113474 151.133838 
L 364.13319 150.955215 
L 364.152267 150.776666 
L 364.170707 150.598188 
L 364.188509 150.419779 
L 364.205677 150.241436 
L 364.222211 150.063157 
L 364.238111 149.884939 
L 364.25338 149.706781 
L 364.268017 149.528679 
L 364.282025 149.350632 
L 364.295403 149.172636 
L 364.308153 148.99469 
L 364.320276 148.816792 
L 364.331773 148.638938 
L 364.342644 148.461127 
L 364.352889 148.283356 
L 364.362511 148.105623 
L 364.371509 147.927926 
L 364.379883 147.750261 
L 364.387635 147.572627 
L 364.394765 147.395021 
L 364.401273 147.217441 
L 364.407161 147.039885 
L 364.412427 146.86235 
L 364.417073 146.684834 
L 364.421099 146.507335 
L 364.424505 146.329849 
L 364.427292 146.152376 
L 364.429459 145.974911 
L 364.431007 145.797454 
L 364.431935 145.620002 
L 364.432245 145.442552 
" clip-path="url(#p060985a781)" style="fill: none; stroke: #000000; stroke-width: 5; stroke-linecap: round"/>
   </g>
   <g id="patch_2">
    <path d="M 336.218497 149.136944 
C 337.198261 149.136944 338.138029 148.747679 338.830827 148.054882 
C 339.523625 147.362084 339.912889 146.422316 339.912889 145.442552 
C 339.912889 144.462788 339.523625 143.52302 338.830827 142.830222 
C 338.138029 142.137424 337.198261 141.74816 336.218497 141.74816 
C 335.238733 141.74816 334.298965 142.137424 333.606167 142.830222 
C 332.91337 143.52302 332.524105 144.462788 332.524105 145.442552 
C 332.524105 146.422316 332.91337 147.362084 333.606167 148.054882 
C 334.298965 148.747679 335.238733 149.136944 336.218497 149.136944 
z
" clip-path="url(#p060985a781)" style="fill: #ff69b4; stroke: #ff69b4; stroke-linejoin: miter"/>
   </g>
  </g>
 </g>
 <defs>
  <clipPath id="p060985a781">
   <rect x="68.963172" y="34.56" width="304.873655" height="221.76"/>
  </clipPath>
 </defs>
</svg>
