<?xml version="1.0" encoding="utf-8" standalone="no"?>
<!DOCTYPE svg PUBLIC "-//W3C//DTD SVG 1.1//EN"
  "http://www.w3.org/Graphics/SVG/1.1/DTD/svg11.dtd">
<svg xmlns:xlink="http://www.w3.org/1999/xlink" width="432pt" height="288pt" viewBox="0 0 432 288" xmlns="http://www.w3.org/2000/svg" version="1.1">
 <metadata>
  <rdf:RDF xmlns:dc="http://purl.org/dc/elements/1.1/" xmlns:cc="http://creativecommons.org/ns#" xmlns:rdf="http://www.w3.org/1999/02/22-rdf-syntax-ns#">
   <cc:Work>
    <dc:type rdf:resource="http://purl.org/dc/dcmitype/StillImage"/>
    <dc:date>2024-10-15T11:14:20.918331</dc:date>
    <dc:format>image/svg+xml</dc:format>
    <dc:creator>
     <cc:Agent>
      <dc:title>Matplotlib v3.9.0, https://matplotlib.org/</dc:title>
     </cc:Agent>
    </dc:creator>
   </cc:Work>
  </rdf:RDF>
 </metadata>
 <defs>
  <style type="text/css">*{stroke-linejoin: round; stroke-linecap: butt}</style>
 </defs>
 <g id="figure_1">
  <g id="patch_1">
   <path d="M 0 288 
L 432 288 
L 432 0 
L 0 0 
z
" style="fill: #ffffff"/>
  </g>
  <g id="axes_1">
   <g id="line2d_1">
    <path d="M 306.693479 145.439989 
L 306.586553 141.17053 
L 306.26604 136.911725 
L 305.732728 132.674202 
L 304.987928 128.468539 
L 304.033473 124.305236 
L 302.871712 120.194693 
L 301.505506 116.147185 
L 299.93822 112.172835 
L 298.173716 108.28159 
L 296.216345 104.483198 
L 294.070937 100.787185 
L 291.742789 97.20283 
L 289.237654 93.739143 
L 286.561726 90.404843 
L 283.72163 87.208337 
L 280.724401 84.157697 
L 277.577473 81.260642 
L 274.288657 78.524517 
L 270.866127 75.956277 
L 267.318398 73.562465 
L 263.654308 71.349197 
L 259.882995 69.322147 
L 256.013875 67.48653 
L 252.056624 65.847091 
L 248.021148 64.408088 
L 243.917564 63.173283 
L 239.756175 62.145929 
L 235.547441 61.328764 
L 231.301958 60.723999 
L 227.030428 60.333312 
L 222.743635 60.157846 
L 218.452417 60.198198 
L 214.167639 60.45442 
L 209.900164 60.926017 
L 205.660829 61.611947 
L 201.460411 62.510621 
L 197.309607 63.619905 
L 193.219 64.937126 
L 189.199034 66.459076 
L 185.259988 68.182018 
L 181.411945 70.101697 
L 177.664769 72.213347 
L 174.028079 74.511704 
L 170.511218 76.991017 
L 167.123237 79.645063 
L 163.87286 82.467161 
L 160.768469 85.45019 
L 157.818078 88.586606 
L 155.029309 91.86846 
L 152.409375 95.28742 
L 149.965058 98.834793 
L 147.70269 102.501543 
L 145.628137 106.27832 
L 143.746782 110.15548 
L 142.063509 114.123113 
L 140.582691 118.171069 
L 139.308176 122.288982 
L 138.243279 126.4663 
L 137.39077 130.692313 
L 136.752867 134.956181 
L 136.33123 139.246961 
L 136.126958 143.553641 
L 136.140581 147.865163 
L 136.372065 152.170459 
L 136.820806 156.458477 
L 137.485637 160.718209 
L 138.364828 164.938726 
L 139.456089 169.109201 
L 140.756584 173.218943 
L 142.262931 177.257421 
L 143.971214 181.214296 
L 145.876996 185.079445 
L 147.97533 188.84299 
L 150.260772 192.495323 
L 152.727397 196.027131 
L 155.368816 199.429421 
L 158.17819 202.693544 
L 161.148257 205.811213 
L 164.271342 208.774529 
L 167.539385 211.576002 
L 170.94396 214.208562 
L 174.476301 216.665586 
L 178.127319 218.94091 
L 181.887634 221.028841 
L 185.747597 222.924179 
L 189.697314 224.622219 
L 193.726675 226.118771 
L 197.825382 227.410164 
L 201.982969 228.493257 
L 206.188838 229.365443 
L 210.432282 230.024658 
L 214.702513 230.469379 
L 218.98869 230.698633 
L 223.279949 230.711993 
L 227.565425 230.50958 
L 231.834288 230.092061 
L 236.075761 229.460643 
L 240.279154 228.617072 
L 244.433887 227.563627 
L 248.529516 226.303108 
L 252.555763 224.838835 
L 256.502535 223.174631 
L 260.359953 221.314816 
L 264.118373 219.264194 
L 267.768412 217.028038 
L 271.300968 214.612079 
L 274.707242 212.022487 
L 277.978762 209.265857 
L 281.107398 206.349195 
L 284.085383 203.279892 
L 286.905335 200.065713 
L 289.560267 196.714773 
L 292.043609 193.235519 
L 294.34922 189.636709 
L 296.471403 185.927386 
L 298.40492 182.116862 
L 300.145 178.214691 
L 301.687352 174.230648 
L 303.028176 170.174704 
L 304.16417 166.057002 
L 305.092536 161.887833 
L 305.810989 157.677611 
L 306.317763 153.436848 
L 306.61161 149.176129 
L 306.693479 145.439989 
L 306.693479 145.439989 
" clip-path="url(#p15a2bd765c)" style="fill: none; stroke-dasharray: 1,1.65; stroke-dashoffset: 0; stroke: #000000"/>
   </g>
   <g id="line2d_2">
    <path d="M 306.691808 144.906088 
L 306.558159 140.637378 
L 306.210992 136.380653 
L 305.651161 132.146536 
L 304.880043 127.945595 
L 303.899536 123.78832 
L 302.712053 119.685098 
L 301.320517 115.646185 
L 299.728357 111.681683 
L 297.939497 107.801515 
L 295.958348 104.015405 
L 293.789798 100.332847 
L 291.439203 96.763089 
L 288.912371 93.315104 
L 286.215552 89.997576 
L 283.355421 86.818868 
L 280.339065 83.787011 
L 277.173966 80.909679 
L 273.867982 78.194168 
L 270.429329 75.647382 
L 266.866566 73.275812 
L 263.188567 71.08552 
L 259.404507 69.082124 
L 255.523837 67.27078 
L 251.556262 65.656173 
L 247.511715 64.242499 
L 243.400339 63.033458 
L 239.232456 62.032238 
L 235.018547 61.241513 
L 230.76922 60.663427 
L 226.495191 60.299592 
L 222.207252 60.151081 
L 217.916245 60.218425 
L 213.633036 60.501607 
L 209.368487 61.000064 
L 205.133428 61.712686 
L 200.938629 62.637814 
L 196.794774 63.773247 
L 192.712429 65.116245 
L 188.702019 66.663534 
L 184.773801 68.411311 
L 180.937832 70.355258 
L 177.203946 72.490544 
L 173.581729 74.811845 
L 170.080491 77.31335 
L 166.709239 79.988777 
L 163.476659 82.831389 
L 160.391088 85.834013 
L 157.460491 88.989051 
L 154.69244 92.288507 
L 152.094097 95.724001 
L 149.672186 99.286797 
L 147.432985 102.967818 
L 145.382297 106.757676 
L 143.525446 110.646692 
L 141.867251 114.624926 
L 140.412021 118.682197 
L 139.163538 122.808116 
L 138.125049 126.99211 
L 137.299256 131.22345 
L 136.688307 135.491282 
L 136.293793 139.784653 
L 136.11674 144.092543 
L 136.157609 148.403893 
L 136.416295 152.707633 
L 136.892123 156.992715 
L 137.583855 161.248141 
L 138.489691 165.462992 
L 139.607273 169.626458 
L 140.933695 173.727864 
L 142.465509 177.756703 
L 144.198733 181.70266 
L 146.128865 185.555644 
L 148.250895 189.305807 
L 150.559319 192.943577 
L 153.048152 196.459681 
L 155.710947 199.845166 
L 158.540814 203.091427 
L 161.530436 206.190226 
L 164.672089 209.133713 
L 167.957667 211.914449 
L 171.378699 214.525421 
L 174.926377 216.96006 
L 178.591576 219.212261 
L 182.36488 221.276392 
L 186.236608 223.147314 
L 190.196838 224.820387 
L 194.235435 226.291484 
L 198.342076 227.557001 
L 202.506281 228.613862 
L 206.717434 229.459528 
L 210.964818 230.092003 
L 215.237635 230.509833 
L 219.525042 230.712112 
L 223.816172 230.698483 
L 228.100163 230.469135 
L 232.36619 230.024801 
L 236.603486 229.366757 
L 240.801372 228.496817 
L 244.949285 227.417323 
L 249.0368 226.131143 
L 253.053661 224.641659 
L 256.989799 222.952757 
L 260.835365 221.068819 
L 264.580745 218.994707 
L 268.21659 216.735754 
L 271.733835 214.297744 
L 275.123722 211.686903 
L 278.377818 208.909878 
L 281.48804 205.973724 
L 284.446667 202.885879 
L 287.246365 199.654154 
L 289.880199 196.286707 
L 292.341651 192.792023 
L 294.624636 189.178898 
L 296.723513 185.456411 
L 298.633101 181.633904 
L 300.34869 177.72096 
L 301.866049 173.727381 
L 303.181439 169.663159 
L 304.291622 165.538458 
L 305.193863 161.363585 
L 305.885943 157.148969 
L 306.366158 152.905131 
L 306.633328 148.642665 
L 306.693479 145.439989 
L 306.693479 145.439989 
" clip-path="url(#p15a2bd765c)" style="fill: none; stroke: #00bfff; stroke-opacity: 0.5; stroke-width: 30; stroke-linecap: round"/>
   </g>
   <g id="line2d_3">
    <path d="M 147.432985 102.967818 
L 145.382297 106.757676 
L 143.525446 110.646692 
L 141.867251 114.624926 
L 140.412021 118.682197 
L 139.163538 122.808116 
L 138.125049 126.99211 
L 137.299256 131.22345 
L 136.688307 135.491282 
L 136.293793 139.784653 
L 136.11674 144.092543 
L 136.157609 148.403893 
L 136.416295 152.707633 
L 136.892123 156.992715 
L 137.583855 161.248141 
L 138.489691 165.462992 
L 139.607273 169.626458 
L 140.933695 173.727864 
L 142.465509 177.756703 
L 144.198733 181.70266 
L 146.128865 185.555644 
L 147.432985 187.912159 
L 147.432985 187.912159 
" clip-path="url(#p15a2bd765c)" style="fill: none; stroke: #32cd32; stroke-opacity: 0.5; stroke-width: 20; stroke-linecap: round"/>
   </g>
   <g id="line2d_4">
    <path d="M 136.106521 145.709488 
L 136.229115 150.019281 
L 136.569338 154.317317 
L 137.126305 158.592564 
L 137.898567 162.834049 
L 138.884114 167.03089 
L 140.080382 171.172326 
L 141.484259 175.247741 
L 143.092096 179.246697 
L 144.899715 183.158959 
L 146.902423 186.974525 
L 149.095022 190.683647 
L 151.471826 194.276862 
L 154.026674 197.745015 
L 156.752953 201.07928 
L 159.643607 204.271188 
L 162.691167 207.312643 
L 165.887762 210.195948 
L 169.225146 212.91382 
L 172.694721 215.459412 
L 176.287555 217.826328 
L 179.994411 220.008636 
L 183.805772 222.00089 
L 187.711863 223.798135 
L 191.702679 225.395922 
L 195.768011 226.790321 
L 199.897475 227.977923 
L 204.080535 228.955855 
L 208.306536 229.72178 
L 212.564725 230.273904 
L 216.844287 230.610979 
L 221.134363 230.732305 
L 225.424088 230.63773 
L 229.702609 230.327646 
L 233.959119 229.802993 
L 238.182882 229.065247 
L 242.363259 228.116421 
L 246.489736 226.959056 
L 250.551948 225.596213 
L 254.539706 224.031465 
L 258.443022 222.268885 
L 262.252131 220.313037 
L 265.957516 218.16896 
L 269.549932 215.842158 
L 273.020428 213.338584 
L 276.360363 210.664623 
L 279.561434 207.827077 
L 282.615692 204.833146 
L 285.51556 201.690412 
L 288.253849 198.406817 
L 290.823781 194.990645 
L 293.218997 191.4505 
L 295.433578 187.795285 
L 297.462054 184.034182 
L 299.299419 180.176626 
L 300.941141 176.232284 
L 302.383173 172.211033 
L 303.621963 168.122933 
L 304.654461 163.978202 
L 305.478124 159.787198 
L 306.090926 155.560386 
L 306.49136 151.308319 
L 306.67844 147.041608 
L 306.693479 145.439989 
L 306.693479 145.439989 
" clip-path="url(#p15a2bd765c)" style="fill: none; stroke: #9400d3; stroke-opacity: 0.5; stroke-width: 10; stroke-linecap: round"/>
   </g>
   <g id="line2d_5"/>
   <g id="line2d_6">
    <path d="M 136.106521 145.709488 
L 136.109927 146.248477 
L 136.11674 146.787434 
L 136.126958 147.326336 
L 136.140581 147.865163 
L 136.157609 148.403893 
L 136.178041 148.942503 
L 136.201877 149.480973 
L 136.229115 150.019281 
L 136.259754 150.557405 
L 136.293793 151.095324 
L 136.33123 151.633016 
L 136.372065 152.170459 
L 136.416295 152.707633 
L 136.463918 153.244514 
L 136.514933 153.781083 
L 136.569338 154.317317 
L 136.62713 154.853195 
L 136.688307 155.388695 
L 136.752867 155.923796 
L 136.820806 156.458477 
L 136.892123 156.992715 
L 136.966813 157.52649 
L 137.044875 158.05978 
L 137.126305 158.592564 
L 137.2111 159.12482 
L 137.299256 159.656527 
L 137.39077 160.187664 
L 137.485637 160.718209 
L 137.583855 161.248141 
L 137.685418 161.77744 
L 137.790324 162.306082 
L 137.898567 162.834049 
L 138.010144 163.361317 
L 138.125049 163.887867 
L 138.243279 164.413677 
L 138.364828 164.938726 
L 138.489691 165.462992 
L 138.617863 165.986456 
L 138.749339 166.509096 
L 138.884114 167.03089 
L 139.022182 167.551819 
L 139.163538 168.071861 
L 139.308176 168.590995 
L 139.456089 169.109201 
L 139.607273 169.626458 
L 139.76172 170.142744 
L 139.919425 170.658041 
L 140.080382 171.172326 
L 140.244582 171.685579 
L 140.412021 172.19778 
L 140.582691 172.708908 
L 140.756584 173.218943 
L 140.933695 173.727864 
L 141.114016 174.235651 
L 141.29754 174.742283 
L 141.484259 175.247741 
L 141.674165 175.752004 
L 141.867251 176.255051 
L 142.063509 176.756864 
L 142.262931 177.257421 
L 142.465509 177.756703 
L 142.671235 178.254689 
L 142.8801 178.75136 
L 143.092096 179.246697 
L 143.307214 179.740678 
L 143.525446 180.233285 
L 143.746782 180.724497 
L 143.971214 181.214296 
L 144.198733 181.70266 
L 144.429329 182.189572 
L 144.662993 182.675012 
L 144.899715 183.158959 
L 145.139487 183.641395 
L 145.382297 184.122301 
L 145.628137 184.601657 
L 145.876996 185.079445 
L 146.128865 185.555644 
L 146.383732 186.030236 
L 146.641589 186.503203 
L 146.902423 186.974525 
L 147.166225 187.444183 
L 147.432985 187.912159 
" clip-path="url(#p15a2bd765c)" style="fill: none; stroke: #000000; stroke-width: 5; stroke-linecap: round"/>
   </g>
   <g id="patch_2">
    <path d="M 221.804932 147.24245 
C 222.28295 147.24245 222.741455 147.052531 223.079465 146.714521 
C 223.417475 146.376511 223.607393 145.918007 223.607393 145.439989 
C 223.607393 144.96197 223.417475 144.503466 223.079465 144.165456 
C 222.741455 143.827446 222.28295 143.637527 221.804932 143.637527 
C 221.326914 143.637527 220.86841 143.827446 220.5304 144.165456 
C 220.19239 144.503466 220.002471 144.96197 220.002471 145.439989 
C 220.002471 145.918007 220.19239 146.376511 220.5304 146.714521 
C 220.86841 147.052531 221.326914 147.24245 221.804932 147.24245 
z
" clip-path="url(#p15a2bd765c)" style="fill: #ff69b4; stroke: #ff69b4; stroke-linejoin: miter"/>
   </g>
  </g>
 </g>
 <defs>
  <clipPath id="p15a2bd765c">
   <rect x="107.810339" y="34.56" width="227.179322" height="221.76"/>
  </clipPath>
 </defs>
</svg>
