<?xml version="1.0" encoding="utf-8" standalone="no"?>
<!DOCTYPE svg PUBLIC "-//W3C//DTD SVG 1.1//EN"
  "http://www.w3.org/Graphics/SVG/1.1/DTD/svg11.dtd">
<svg xmlns:xlink="http://www.w3.org/1999/xlink" width="432pt" height="288pt" viewBox="0 0 432 288" xmlns="http://www.w3.org/2000/svg" version="1.1">
 <metadata>
  <rdf:RDF xmlns:dc="http://purl.org/dc/elements/1.1/" xmlns:cc="http://creativecommons.org/ns#" xmlns:rdf="http://www.w3.org/1999/02/22-rdf-syntax-ns#">
   <cc:Work>
    <dc:type rdf:resource="http://purl.org/dc/dcmitype/StillImage"/>
    <dc:date>2024-10-15T11:12:36.001894</dc:date>
    <dc:format>image/svg+xml</dc:format>
    <dc:creator>
     <cc:Agent>
      <dc:title>Matplotlib v3.9.0, https://matplotlib.org/</dc:title>
     </cc:Agent>
    </dc:creator>
   </cc:Work>
  </rdf:RDF>
 </metadata>
 <defs>
  <style type="text/css">*{stroke-linejoin: round; stroke-linecap: butt}</style>
 </defs>
 <g id="figure_1">
  <g id="patch_1">
   <path d="M 0 288 
L 432 288 
L 432 0 
L 0 0 
z
" style="fill: #ffffff"/>
  </g>
  <g id="axes_1">
   <g id="line2d_1">
    <path d="M 306.692624 145.440548 
L 306.58468 141.150782 
L 306.26112 136.871873 
L 305.722764 132.614653 
L 304.970974 128.389898 
L 304.007654 124.2083 
L 302.835241 120.080444 
L 301.456703 116.016778 
L 299.875529 112.027587 
L 298.095722 108.12297 
L 296.121786 104.31281 
L 293.958718 100.606749 
L 291.611992 97.014169 
L 289.08755 93.544164 
L 286.39178 90.205516 
L 283.531505 87.006675 
L 280.513967 83.95574 
L 277.346801 81.060431 
L 274.038026 78.328078 
L 270.596016 75.765596 
L 267.029482 73.379472 
L 263.347454 71.175744 
L 259.55925 69.159992 
L 255.674458 67.337317 
L 251.702913 65.712333 
L 247.654665 64.289152 
L 243.539963 63.071377 
L 239.369221 62.062091 
L 235.152996 61.263847 
L 230.901959 60.678667 
L 226.626871 60.308032 
L 222.338553 60.15288 
L 218.047858 60.213603 
L 213.765647 60.490048 
L 209.50276 60.981515 
L 205.269986 61.68676 
L 201.078038 62.603998 
L 196.937528 63.730907 
L 192.858936 65.064635 
L 188.852584 66.601807 
L 184.928615 68.338531 
L 181.096959 70.270411 
L 177.367315 72.392558 
L 173.749124 74.6996 
L 170.251544 77.185697 
L 166.883427 79.844558 
L 163.6533 82.669451 
L 160.569337 85.653228 
L 157.639344 88.788334 
L 154.870739 92.066836 
L 152.270528 95.480434 
L 149.845294 99.020489 
L 147.601175 102.678039 
L 145.54385 106.443828 
L 143.678528 110.308323 
L 142.00993 114.261743 
L 140.542279 118.294081 
L 139.27929 122.39513 
L 138.22416 126.554511 
L 137.37956 130.761696 
L 136.747627 135.006034 
L 136.329961 139.276784 
L 136.127619 143.563135 
L 136.141113 147.854238 
L 136.37041 152.139232 
L 136.814928 156.40727 
L 137.473543 160.64755 
L 138.344588 164.849339 
L 139.425857 169.002002 
L 140.714614 173.095027 
L 142.207597 177.118054 
L 143.901027 181.060901 
L 145.790618 184.913588 
L 147.871586 188.666363 
L 150.138665 192.309727 
L 152.586117 195.834458 
L 155.207745 199.231635 
L 157.996916 202.492659 
L 160.946568 205.609276 
L 164.049236 208.573596 
L 167.297067 211.378118 
L 170.68184 214.015743 
L 174.194987 216.479793 
L 177.827616 218.764033 
L 181.570533 220.862681 
L 185.414264 222.770424 
L 189.349079 224.482434 
L 193.365019 225.994377 
L 197.45192 227.302427 
L 201.599435 228.403273 
L 205.797069 229.294128 
L 210.034195 229.972737 
L 214.300089 230.437383 
L 218.583953 230.68689 
L 222.874945 230.720626 
L 227.162203 230.538505 
L 231.434876 230.140989 
L 235.682148 229.529084 
L 239.893269 228.704339 
L 244.057581 227.668841 
L 248.164542 226.425211 
L 252.203759 224.976598 
L 256.165005 223.326667 
L 260.038256 221.479594 
L 263.813708 219.440056 
L 267.481803 217.213215 
L 271.033259 214.804706 
L 274.459084 212.220627 
L 277.750609 209.467517 
L 280.899502 206.552346 
L 283.897792 203.482492 
L 286.737891 200.265726 
L 289.41261 196.910189 
L 291.915178 193.424375 
L 294.239262 189.817106 
L 296.378978 186.097515 
L 298.328911 182.275014 
L 300.084125 178.35928 
L 301.640178 174.360224 
L 302.993131 170.287968 
L 304.139559 166.15282 
L 305.07656 161.965246 
L 305.801764 157.735846 
L 306.313334 153.475324 
L 306.609975 149.194465 
L 306.692624 145.440548 
L 306.692624 145.440548 
" clip-path="url(#p3bcaf6714e)" style="fill: none; stroke-dasharray: 1,1.65; stroke-dashoffset: 0; stroke: #000000"/>
   </g>
   <g id="line2d_2">
    <path d="M 306.690937 144.904105 
L 306.556015 140.615102 
L 306.20555 136.338313 
L 305.640429 132.084563 
L 304.862082 127.86462 
L 303.872481 123.689163 
L 302.674129 119.568762 
L 301.27006 115.513847 
L 299.663828 111.53468 
L 297.859498 107.641335 
L 295.861638 103.843664 
L 293.675303 100.151281 
L 291.306029 96.573532 
L 288.759812 93.119473 
L 286.043097 89.797845 
L 283.162761 86.617058 
L 280.126093 83.585161 
L 276.94078 80.709829 
L 273.614885 77.99834 
L 270.156827 75.457558 
L 266.575357 73.093912 
L 262.879541 70.913386 
L 259.078733 68.921499 
L 255.182555 67.123293 
L 251.200868 65.52332 
L 247.14375 64.125629 
L 243.02147 62.933757 
L 238.844463 61.950722 
L 234.6233 61.179012 
L 230.368667 60.620581 
L 226.091333 60.276841 
L 221.802123 60.148662 
L 217.511895 60.23637 
L 213.231508 60.539742 
L 208.971796 61.058011 
L 204.743541 61.789863 
L 200.557445 62.733448 
L 196.424105 63.886377 
L 192.353981 65.245731 
L 188.357377 66.80807 
L 184.444408 68.569439 
L 180.624978 70.52538 
L 176.908755 72.670942 
L 173.305146 75.000695 
L 169.823271 77.508741 
L 166.471944 80.188732 
L 163.259647 83.033885 
L 160.194511 86.036999 
L 157.284295 89.190472 
L 154.536364 92.486322 
L 151.957675 95.916206 
L 149.554753 99.471444 
L 147.333682 103.143037 
L 145.300083 106.92169 
L 143.459103 110.797841 
L 141.815403 114.761677 
L 140.373142 118.803166 
L 139.135971 122.912078 
L 138.107023 127.078012 
L 137.2889 131.290425 
L 136.683674 135.538655 
L 136.292877 139.811947 
L 136.117498 144.099486 
L 136.15798 148.390419 
L 136.414223 152.673886 
L 136.885576 156.939044 
L 137.570846 161.175098 
L 138.468301 165.371326 
L 139.575666 169.517105 
L 140.890141 173.601944 
L 142.408397 177.615502 
L 144.126592 181.54762 
L 146.040376 185.388346 
L 148.144906 189.127959 
L 150.434855 192.756992 
L 152.904427 196.26626 
L 155.54737 199.646882 
L 158.356995 202.890299 
L 161.326191 205.988302 
L 164.447442 208.93305 
L 167.712847 211.71709 
L 171.114142 214.333374 
L 174.642717 216.77528 
L 178.289641 219.036627 
L 182.045684 221.111692 
L 185.901337 222.995223 
L 189.846842 224.682451 
L 193.872212 226.169107 
L 197.967258 227.451427 
L 202.121615 228.526165 
L 206.324769 229.390602 
L 210.566079 230.042548 
L 214.834811 230.480355 
L 219.12016 230.702914 
L 223.411279 230.709661 
L 227.697307 230.50058 
L 231.967395 230.076199 
L 236.210734 229.437593 
L 240.416585 228.586379 
L 244.574302 227.52471 
L 248.673361 226.255274 
L 252.703386 224.781285 
L 256.654177 223.106473 
L 260.515735 221.235076 
L 264.278284 219.171833 
L 267.932301 216.921965 
L 271.468538 214.491168 
L 274.878044 211.885593 
L 278.152188 209.111836 
L 281.282684 206.176918 
L 284.261607 203.088267 
L 287.081418 199.853702 
L 289.73498 196.481409 
L 292.215575 192.979924 
L 294.516925 189.35811 
L 296.633204 185.625134 
L 298.559057 181.790445 
L 300.289609 177.863749 
L 301.820479 173.854986 
L 303.147793 169.774301 
L 304.268191 165.632024 
L 305.178836 161.43864 
L 305.877425 157.204762 
L 306.362188 152.941107 
L 306.6319 148.658467 
L 306.692624 145.440548 
L 306.692624 145.440548 
" clip-path="url(#p3bcaf6714e)" style="fill: none; stroke: #00bfff; stroke-opacity: 0.5; stroke-width: 30; stroke-linecap: round"/>
   </g>
   <g id="line2d_3">
    <path d="M 306.690937 144.904105 
L 306.556015 140.615102 
L 306.20555 136.338313 
L 305.640429 132.084563 
L 304.862082 127.86462 
L 303.872481 123.689163 
L 302.674129 119.568762 
L 301.27006 115.513847 
L 299.663828 111.53468 
L 297.859498 107.641335 
L 295.861638 103.843664 
L 293.675303 100.151281 
L 291.306029 96.573532 
L 288.759812 93.119473 
L 286.043097 89.797845 
L 283.162761 86.617058 
L 280.126093 83.585161 
L 276.94078 80.709829 
L 273.614885 77.99834 
L 270.156827 75.457558 
L 266.575357 73.093912 
L 262.879541 70.913386 
L 259.078733 68.921499 
L 255.182555 67.123293 
L 251.200868 65.52332 
L 247.14375 64.125629 
L 243.02147 62.933757 
L 238.844463 61.950722 
L 234.6233 61.179012 
L 230.368667 60.620581 
L 226.091333 60.276841 
L 221.802123 60.148662 
L 217.511895 60.23637 
L 213.231508 60.539742 
L 208.971796 61.058011 
L 204.743541 61.789863 
L 200.557445 62.733448 
L 196.424105 63.886377 
L 192.353981 65.245731 
L 188.357377 66.80807 
L 184.444408 68.569439 
L 180.624978 70.52538 
L 176.908755 72.670942 
L 173.305146 75.000695 
L 169.823271 77.508741 
L 166.471944 80.188732 
L 163.259647 83.033885 
L 160.194511 86.036999 
L 157.284295 89.190472 
L 154.536364 92.486322 
L 151.957675 95.916206 
L 149.554753 99.471444 
L 147.333682 103.143037 
L 145.300083 106.92169 
L 143.459103 110.797841 
L 141.815403 114.761677 
L 140.373142 118.803166 
L 139.135971 122.912078 
L 138.107023 127.078012 
L 137.2889 131.290425 
L 136.683674 135.538655 
L 136.292877 139.811947 
L 136.117498 144.099486 
L 136.15798 148.390419 
L 136.414223 152.673886 
L 136.885576 156.939044 
L 137.570846 161.175098 
L 138.468301 165.371326 
L 139.575666 169.517105 
L 140.890141 173.601944 
L 142.408397 177.615502 
L 144.126592 181.54762 
L 146.040376 185.388346 
L 148.144906 189.127959 
L 150.434855 192.756992 
L 152.904427 196.26626 
L 155.54737 199.646882 
L 158.356995 202.890299 
L 161.326191 205.988302 
L 164.447442 208.93305 
L 167.712847 211.71709 
L 171.114142 214.333374 
L 174.642717 216.77528 
L 178.289641 219.036627 
L 182.045684 221.111692 
L 185.901337 222.995223 
L 189.846842 224.682451 
L 193.872212 226.169107 
L 197.967258 227.451427 
L 202.121615 228.526165 
L 206.324769 229.390602 
L 210.566079 230.042548 
L 214.834811 230.480355 
L 219.12016 230.702914 
L 223.411279 230.709661 
L 227.697307 230.50058 
L 231.967395 230.076199 
L 236.210734 229.437593 
L 240.416585 228.586379 
L 244.574302 227.52471 
L 248.673361 226.255274 
L 252.703386 224.781285 
L 256.654177 223.106473 
L 260.515735 221.235076 
L 264.278284 219.171833 
L 267.932301 216.921965 
L 271.468538 214.491168 
L 274.878044 211.885593 
L 278.152188 209.111836 
L 281.282684 206.176918 
L 284.261607 203.088267 
L 287.081418 199.853702 
L 289.73498 196.481409 
L 292.215575 192.979924 
L 294.516925 189.35811 
L 296.633204 185.625134 
L 298.559057 181.790445 
L 300.289609 177.863749 
L 301.820479 173.854986 
L 303.147793 169.774301 
L 304.268191 165.632024 
L 305.178836 161.43864 
L 305.877425 157.204762 
L 306.362188 152.941107 
L 306.6319 148.658467 
L 306.692624 145.440548 
L 306.692624 145.440548 
" clip-path="url(#p3bcaf6714e)" style="fill: none; stroke: #32cd32; stroke-opacity: 0.5; stroke-width: 20; stroke-linecap: round"/>
   </g>
   <g id="line2d_4">
    <path d="M 306.690937 144.904105 
L 306.556015 140.615102 
L 306.20555 136.338313 
L 305.640429 132.084563 
L 304.862082 127.86462 
L 303.872481 123.689163 
L 302.674129 119.568762 
L 301.27006 115.513847 
L 299.663828 111.53468 
L 297.859498 107.641335 
L 295.861638 103.843664 
L 293.675303 100.151281 
L 291.306029 96.573532 
L 288.759812 93.119473 
L 286.043097 89.797845 
L 283.162761 86.617058 
L 280.126093 83.585161 
L 276.94078 80.709829 
L 273.614885 77.99834 
L 270.156827 75.457558 
L 266.575357 73.093912 
L 262.879541 70.913386 
L 259.078733 68.921499 
L 255.182555 67.123293 
L 251.200868 65.52332 
L 247.14375 64.125629 
L 243.02147 62.933757 
L 238.844463 61.950722 
L 234.6233 61.179012 
L 230.368667 60.620581 
L 226.091333 60.276841 
L 221.802123 60.148662 
L 217.511895 60.23637 
L 213.231508 60.539742 
L 208.971796 61.058011 
L 204.743541 61.789863 
L 200.557445 62.733448 
L 196.424105 63.886377 
L 192.353981 65.245731 
L 188.357377 66.80807 
L 184.444408 68.569439 
L 180.624978 70.52538 
L 176.908755 72.670942 
L 173.305146 75.000695 
L 169.823271 77.508741 
L 166.471944 80.188732 
L 163.259647 83.033885 
L 160.194511 86.036999 
L 157.284295 89.190472 
L 154.536364 92.486322 
L 151.957675 95.916206 
L 149.554753 99.471444 
L 147.333682 103.143037 
L 145.300083 106.92169 
L 143.459103 110.797841 
L 141.815403 114.761677 
L 140.373142 118.803166 
L 139.135971 122.912078 
L 138.107023 127.078012 
L 137.2889 131.290425 
L 136.683674 135.538655 
L 136.292877 139.811947 
L 136.117498 144.099486 
L 136.15798 148.390419 
L 136.414223 152.673886 
L 136.885576 156.939044 
L 137.570846 161.175098 
L 138.468301 165.371326 
L 139.575666 169.517105 
L 140.890141 173.601944 
L 142.408397 177.615502 
L 144.126592 181.54762 
L 146.040376 185.388346 
L 148.144906 189.127959 
L 150.434855 192.756992 
L 152.904427 196.26626 
L 155.54737 199.646882 
L 158.356995 202.890299 
L 161.326191 205.988302 
L 164.447442 208.93305 
L 167.712847 211.71709 
L 171.114142 214.333374 
L 174.642717 216.77528 
L 178.289641 219.036627 
L 182.045684 221.111692 
L 185.901337 222.995223 
L 189.846842 224.682451 
L 193.872212 226.169107 
L 197.967258 227.451427 
L 202.121615 228.526165 
L 206.324769 229.390602 
L 210.566079 230.042548 
L 214.834811 230.480355 
L 219.12016 230.702914 
L 223.411279 230.709661 
L 227.697307 230.50058 
L 231.967395 230.076199 
L 236.210734 229.437593 
L 240.416585 228.586379 
L 244.574302 227.52471 
L 248.673361 226.255274 
L 252.703386 224.781285 
L 256.654177 223.106473 
L 260.515735 221.235076 
L 264.278284 219.171833 
L 267.932301 216.921965 
L 271.468538 214.491168 
L 274.878044 211.885593 
L 278.152188 209.111836 
L 281.282684 206.176918 
L 284.261607 203.088267 
L 287.081418 199.853702 
L 289.73498 196.481409 
L 292.215575 192.979924 
L 294.516925 189.35811 
L 296.633204 185.625134 
L 298.559057 181.790445 
L 300.289609 177.863749 
L 301.820479 173.854986 
L 303.147793 169.774301 
L 304.268191 165.632024 
L 305.178836 161.43864 
L 305.877425 157.204762 
L 306.362188 152.941107 
L 306.6319 148.658467 
L 306.692624 145.440548 
L 306.692624 145.440548 
" clip-path="url(#p3bcaf6714e)" style="fill: none; stroke: #9400d3; stroke-opacity: 0.5; stroke-width: 10; stroke-linecap: round"/>
   </g>
   <g id="line2d_5">
    <path d="M 306.692624 145.440548 
L 306.58468 141.150782 
L 306.26112 136.871873 
L 305.722764 132.614653 
L 304.970974 128.389898 
L 304.007654 124.2083 
L 302.835241 120.080444 
L 301.456703 116.016778 
L 299.875529 112.027587 
L 298.095722 108.12297 
L 296.121786 104.31281 
L 293.958718 100.606749 
L 291.611992 97.014169 
L 289.08755 93.544164 
L 286.39178 90.205516 
L 283.531505 87.006675 
L 280.513967 83.95574 
L 277.346801 81.060431 
L 274.038026 78.328078 
L 270.596016 75.765596 
L 267.029482 73.379472 
L 263.347454 71.175744 
L 259.55925 69.159992 
L 255.674458 67.337317 
L 251.702913 65.712333 
L 247.654665 64.289152 
L 243.539963 63.071377 
L 239.369221 62.062091 
L 235.152996 61.263847 
L 230.901959 60.678667 
L 226.626871 60.308032 
L 222.338553 60.15288 
L 218.047858 60.213603 
L 213.765647 60.490048 
L 209.50276 60.981515 
L 205.269986 61.68676 
L 201.078038 62.603998 
L 196.937528 63.730907 
L 192.858936 65.064635 
L 188.852584 66.601807 
L 184.928615 68.338531 
L 181.096959 70.270411 
L 177.367315 72.392558 
L 173.749124 74.6996 
L 170.251544 77.185697 
L 166.883427 79.844558 
L 163.6533 82.669451 
L 160.569337 85.653228 
L 157.639344 88.788334 
L 154.870739 92.066836 
L 152.270528 95.480434 
L 149.845294 99.020489 
L 147.601175 102.678039 
L 145.54385 106.443828 
L 143.678528 110.308323 
L 142.00993 114.261743 
L 140.542279 118.294081 
L 139.27929 122.39513 
L 138.22416 126.554511 
L 137.37956 130.761696 
L 136.747627 135.006034 
L 136.329961 139.276784 
L 136.127619 143.563135 
L 136.107376 145.172325 
L 136.107376 145.172325 
" clip-path="url(#p3bcaf6714e)" style="fill: none; stroke: #000000; stroke-width: 5; stroke-linecap: round"/>
   </g>
   <g id="line2d_6">
    <path d="M 136.107376 145.708771 
L 136.22881 149.998177 
L 136.565824 154.276047 
L 137.117565 158.531553 
L 137.882637 162.753923 
L 138.859103 166.932471 
L 140.044491 171.05662 
L 141.435801 175.115931 
L 143.029512 179.100129 
L 144.82159 182.99913 
L 146.807498 186.803064 
L 148.98221 190.502304 
L 151.340221 194.087486 
L 153.875563 197.549536 
L 156.581819 200.87969 
L 159.452139 204.06952 
L 162.479257 207.110951 
L 165.655512 209.996286 
L 168.972863 212.71822 
L 172.422915 215.269865 
L 175.996934 217.644762 
L 179.685875 219.836899 
L 183.480399 221.840729 
L 187.370903 223.651178 
L 191.347539 225.263665 
L 195.400242 226.674108 
L 199.518753 227.878937 
L 203.692649 228.875103 
L 207.911363 229.660083 
L 212.164219 230.231892 
L 216.440452 230.589081 
L 220.729237 230.730747 
L 225.01972 230.656531 
L 229.30104 230.366622 
L 233.56236 229.861751 
L 237.792896 229.143199 
L 241.981938 228.212783 
L 246.118884 227.072858 
L 250.193262 225.72631 
L 254.19476 224.176548 
L 258.113249 222.427492 
L 261.93881 220.483572 
L 265.661762 218.349707 
L 269.27268 216.031298 
L 272.762425 213.534214 
L 276.122163 210.864775 
L 279.343391 208.029738 
L 282.417956 205.036278 
L 285.338075 201.891973 
L 288.096356 198.604781 
L 290.685819 195.183022 
L 293.099909 191.635358 
L 295.332515 187.970769 
L 297.377987 184.198529 
L 299.231147 180.328187 
L 300.887305 176.36954 
L 302.342268 172.332606 
L 303.592354 168.227605 
L 304.634399 164.064927 
L 305.465764 159.855107 
L 306.084347 155.608803 
L 306.48858 151.33676 
L 306.677442 147.049794 
L 306.692624 145.440548 
L 306.692624 145.440548 
" clip-path="url(#p3bcaf6714e)" style="fill: none; stroke: #000000; stroke-width: 5; stroke-linecap: round"/>
   </g>
   <g id="patch_2">
    <path d="M 221.399789 147.643534 
C 221.984028 147.643534 222.544416 147.411414 222.957536 146.998295 
C 223.370655 146.585176 223.602775 146.024787 223.602775 145.440548 
C 223.602775 144.85631 223.370655 144.295921 222.957536 143.882802 
C 222.544416 143.469683 221.984028 143.237562 221.399789 143.237562 
C 220.81555 143.237562 220.255162 143.469683 219.842043 143.882802 
C 219.428923 144.295921 219.196803 144.85631 219.196803 145.440548 
C 219.196803 146.024787 219.428923 146.585176 219.842043 146.998295 
C 220.255162 147.411414 220.81555 147.643534 221.399789 147.643534 
z
" clip-path="url(#p3bcaf6714e)" style="fill: #ff69b4; stroke: #ff69b4; stroke-linejoin: miter"/>
   </g>
  </g>
 </g>
 <defs>
  <clipPath id="p3bcaf6714e">
   <rect x="107.676431" y="34.56" width="227.447138" height="221.76"/>
  </clipPath>
 </defs>
</svg>
