<?xml version="1.0" encoding="utf-8" standalone="no"?>
<!DOCTYPE svg PUBLIC "-//W3C//DTD SVG 1.1//EN"
  "http://www.w3.org/Graphics/SVG/1.1/DTD/svg11.dtd">
<svg xmlns:xlink="http://www.w3.org/1999/xlink" width="432pt" height="288pt" viewBox="0 0 432 288" xmlns="http://www.w3.org/2000/svg" version="1.1">
 <metadata>
  <rdf:RDF xmlns:dc="http://purl.org/dc/elements/1.1/" xmlns:cc="http://creativecommons.org/ns#" xmlns:rdf="http://www.w3.org/1999/02/22-rdf-syntax-ns#">
   <cc:Work>
    <dc:type rdf:resource="http://purl.org/dc/dcmitype/StillImage"/>
    <dc:date>2024-10-15T11:13:39.025245</dc:date>
    <dc:format>image/svg+xml</dc:format>
    <dc:creator>
     <cc:Agent>
      <dc:title>Matplotlib v3.9.0, https://matplotlib.org/</dc:title>
     </cc:Agent>
    </dc:creator>
   </cc:Work>
  </rdf:RDF>
 </metadata>
 <defs>
  <style type="text/css">*{stroke-linejoin: round; stroke-linecap: butt}</style>
 </defs>
 <g id="figure_1">
  <g id="patch_1">
   <path d="M 0 288 
L 432 288 
L 432 0 
L 0 0 
z
" style="fill: #ffffff"/>
  </g>
  <g id="axes_1">
   <g id="line2d_1">
    <path d="M 307.120034 145.440302 
L 307.007629 141.073788 
L 306.67058 136.717464 
L 306.10938 132.381523 
L 305.324858 128.076169 
L 304.318179 123.811621 
L 303.090856 119.598113 
L 301.644759 115.445903 
L 299.982126 111.365266 
L 298.105579 107.366501 
L 296.018136 103.459925 
L 293.723232 99.655871 
L 291.22474 95.964679 
L 288.526984 92.396691 
L 285.634771 88.962234 
L 282.553404 85.671612 
L 279.288711 82.53508 
L 275.847069 79.56283 
L 272.235425 76.764959 
L 268.46132 74.151446 
L 264.532913 71.732113 
L 260.918552 69.752398 
L 257.195827 67.94033 
L 253.37177 66.302345 
L 249.453839 64.844679 
L 245.449929 63.57334 
L 241.368371 62.494071 
L 237.217934 61.612322 
L 233.007828 60.933208 
L 228.747698 60.461477 
L 224.447613 60.201468 
L 220.118064 60.157071 
L 215.769941 60.331686 
L 211.414521 60.728182 
L 207.06344 61.348856 
L 202.728669 62.195389 
L 198.422482 63.268807 
L 194.157417 64.569442 
L 189.946235 66.096892 
L 185.801876 67.849989 
L 181.737406 69.826762 
L 177.765959 72.024412 
L 173.90068 74.439288 
L 170.154661 77.066863 
L 166.540873 79.901725 
L 163.072091 82.937563 
L 159.760827 86.167172 
L 156.619253 89.582449 
L 153.65912 93.174416 
L 151.226708 96.454611 
L 148.94903 99.855444 
L 146.832903 103.369327 
L 144.884733 106.988223 
L 143.110482 110.703668 
L 141.515633 114.506807 
L 140.105158 118.388415 
L 138.883487 122.33894 
L 137.854485 126.348534 
L 137.021427 130.407095 
L 136.386973 134.504312 
L 135.953161 138.629703 
L 135.721385 142.772661 
L 135.692393 146.922506 
L 135.866278 151.068525 
L 136.24248 155.200021 
L 136.819787 159.306363 
L 137.596346 163.37703 
L 138.569672 167.401655 
L 139.736663 171.370073 
L 141.093622 175.27236 
L 142.636277 179.098875 
L 144.359808 182.840297 
L 146.258875 186.487659 
L 148.327649 190.032385 
L 150.559848 193.466312 
L 152.948768 196.781722 
L 155.487324 199.971362 
L 158.56221 203.453997 
L 161.811246 206.754228 
L 165.222408 209.863623 
L 168.783304 212.774639 
L 172.481247 215.480629 
L 176.303332 217.975845 
L 180.236505 220.255429 
L 184.267633 222.315405 
L 188.38357 224.152654 
L 192.571217 225.764902 
L 196.817583 227.15068 
L 201.109831 228.309304 
L 205.435337 229.240835 
L 209.781721 229.946044 
L 214.136897 230.42637 
L 218.489097 230.683883 
L 222.826909 230.721245 
L 227.139294 230.541659 
L 231.41561 230.148839 
L 235.645628 229.546959 
L 239.819544 228.740617 
L 243.927983 227.734797 
L 247.962011 226.534826 
L 251.913132 225.146342 
L 255.773289 223.575258 
L 259.534861 221.827726 
L 263.190655 219.910113 
L 267.168575 217.557657 
L 270.995052 215.007787 
L 274.661717 212.270268 
L 278.160827 209.355028 
L 281.485239 206.272128 
L 284.628389 203.031732 
L 287.584268 199.644078 
L 290.347401 196.119453 
L 292.912818 192.46818 
L 295.276037 188.700598 
L 297.433036 184.827047 
L 299.380238 180.857865 
L 301.114486 176.803373 
L 302.633029 172.673878 
L 303.933502 168.479662 
L 305.013915 164.230989 
L 305.872636 159.938101 
L 306.508385 155.611222 
L 306.920222 151.260559 
L 307.107543 146.896309 
L 307.120034 145.440302 
L 307.120034 145.440302 
" clip-path="url(#p28ca74ce1d)" style="fill: none; stroke-dasharray: 1,1.65; stroke-dashoffset: 0; stroke: #000000"/>
   </g>
   <g id="line2d_2">
    <path d="M 221.202625 230.732841 
L 225.525813 230.634202 
L 229.816877 230.32088 
L 234.065429 229.79688 
L 238.261504 229.066647 
L 242.395568 228.135025 
L 246.458519 227.007216 
L 250.441698 225.688746 
L 254.336883 224.185427 
L 258.13629 222.503328 
L 261.832567 220.648738 
L 265.858997 218.36422 
L 269.736916 215.87908 
L 273.457743 213.203015 
L 277.013528 210.345903 
L 280.396929 207.317765 
L 283.601194 204.128733 
L 286.620132 200.789024 
L 289.44809 197.30891 
L 292.079934 193.698705 
L 294.511021 189.968744 
L 296.73718 186.129367 
L 298.754685 182.190914 
L 300.560243 178.163713 
L 302.150969 174.058075 
L 303.524371 169.884291 
L 304.678336 165.652632 
L 305.611114 161.373345 
L 306.321308 157.056661 
L 306.807866 152.712793 
L 307.070073 148.35194 
L 307.107543 143.984294 
L 306.920222 139.620045 
L 306.508385 135.269382 
L 305.872636 130.942502 
L 305.013915 126.649614 
L 303.933502 122.400941 
L 302.633029 118.206725 
L 301.114486 114.07723 
L 299.380238 110.022738 
L 297.433036 106.053556 
L 295.276037 102.180005 
L 292.912818 98.412423 
L 290.347401 94.76115 
L 287.584268 91.236526 
L 284.628389 87.848871 
L 281.485239 84.608475 
L 278.160827 81.525575 
L 274.661717 78.610335 
L 270.995052 75.872816 
L 267.168575 73.322947 
L 263.190655 70.97049 
L 259.534861 69.052877 
L 255.773289 67.305345 
L 251.913132 65.734261 
L 247.962011 64.345777 
L 243.927983 63.145806 
L 239.819544 62.139986 
L 235.645628 61.333644 
L 231.41561 60.731764 
L 227.139294 60.338944 
L 222.826909 60.159359 
L 221.202625 60.147762 
L 221.202625 60.147762 
" clip-path="url(#p28ca74ce1d)" style="fill: none; stroke: #00bfff; stroke-opacity: 0.5; stroke-width: 30; stroke-linecap: round"/>
   </g>
   <g id="line2d_3">
    <path d="M 307.118646 144.954947 
L 306.981267 140.589062 
L 306.619281 136.234499 
L 306.033221 131.901453 
L 305.223951 127.600128 
L 304.192674 123.340745 
L 302.940944 119.133542 
L 301.470671 114.988776 
L 299.784133 110.916727 
L 297.883996 106.927696 
L 295.773324 103.032001 
L 293.455601 99.239976 
L 290.934746 95.561963 
L 288.215138 92.008302 
L 285.301636 88.589319 
L 282.199601 85.315312 
L 278.914923 82.196532 
L 275.454038 79.24316 
L 271.823959 76.465284 
L 268.032295 73.872865 
L 264.087274 71.475705 
L 260.458998 69.516588 
L 256.723213 67.725932 
L 252.887004 66.11015 
L 248.957886 64.675451 
L 244.943805 63.427812 
L 240.853148 62.372942 
L 236.69474 61.51625 
L 232.477845 60.862807 
L 228.212161 60.417314 
L 223.907811 60.184053 
L 219.575337 60.166856 
L 215.225678 60.369061 
L 210.870156 60.793466 
L 206.520453 61.442293 
L 202.188578 62.317144 
L 197.88684 63.418961 
L 193.627808 64.747986 
L 189.424269 66.303722 
L 185.28918 68.084903 
L 181.235618 70.089455 
L 177.276723 72.314477 
L 173.425638 74.756205 
L 169.695442 77.410006 
L 166.099086 80.270353 
L 162.649316 83.330825 
L 159.358605 86.584103 
L 156.239077 90.021976 
L 153.65912 93.174416 
L 151.226708 96.454611 
L 148.94903 99.855444 
L 146.832903 103.369327 
L 144.884733 106.988223 
L 143.110482 110.703668 
L 141.515633 114.506807 
L 140.105158 118.388415 
L 138.883487 122.33894 
L 137.854485 126.348534 
L 137.021427 130.407095 
L 136.386973 134.504312 
L 135.953161 138.629703 
L 135.721385 142.772661 
L 135.692393 146.922506 
L 135.866278 151.068525 
L 136.24248 155.200021 
L 136.819787 159.306363 
L 137.596346 163.37703 
L 138.569672 167.401655 
L 139.736663 171.370073 
L 141.093622 175.27236 
L 142.636277 179.098875 
L 144.359808 182.840297 
L 146.258875 186.487659 
L 148.327649 190.032385 
L 150.559848 193.466312 
L 152.948768 196.781722 
L 155.487324 199.971362 
L 158.56221 203.453997 
L 161.811246 206.754228 
L 165.222408 209.863623 
L 168.783304 212.774639 
L 172.481247 215.480629 
L 176.303332 217.975845 
L 180.236505 220.255429 
L 184.267633 222.315405 
L 188.38357 224.152654 
L 192.571217 225.764902 
L 196.817583 227.15068 
L 201.109831 228.309304 
L 205.435337 229.240835 
L 209.781721 229.946044 
L 214.136897 230.42637 
L 218.489097 230.683883 
L 222.826909 230.721245 
L 227.139294 230.541659 
L 231.41561 230.148839 
L 235.645628 229.546959 
L 239.819544 228.740617 
L 243.927983 227.734797 
L 247.962011 226.534826 
L 251.913132 225.146342 
L 255.773289 223.575258 
L 259.534861 221.827726 
L 263.190655 219.910113 
L 267.168575 217.557657 
L 270.995052 215.007787 
L 274.661717 212.270268 
L 278.160827 209.355028 
L 281.485239 206.272128 
L 284.628389 203.031732 
L 287.584268 199.644078 
L 290.347401 196.119453 
L 292.912818 192.46818 
L 295.276037 188.700598 
L 297.433036 184.827047 
L 299.380238 180.857865 
L 301.114486 176.803373 
L 302.633029 172.673878 
L 303.933502 168.479662 
L 305.013915 164.230989 
L 305.872636 159.938101 
L 306.508385 155.611222 
L 306.920222 151.260559 
L 307.107543 146.896309 
L 307.120034 145.440302 
L 307.120034 145.440302 
" clip-path="url(#p28ca74ce1d)" style="fill: none; stroke: #32cd32; stroke-opacity: 0.5; stroke-width: 20; stroke-linecap: round"/>
   </g>
   <g id="line2d_4">
    <path d="M 135.679966 145.736758 
L 135.795915 149.884963 
L 136.114408 154.021697 
L 136.634418 158.136305 
L 137.354274 162.21823 
L 138.27167 166.257057 
L 139.38368 170.242559 
L 140.686774 174.164737 
L 142.176841 178.013867 
L 143.849216 181.780532 
L 145.698703 185.455661 
L 147.719612 189.030563 
L 149.905785 192.496954 
L 152.250634 195.846988 
L 154.74718 199.073274 
L 157.776702 202.60009 
L 160.983311 205.946747 
L 164.35509 209.104593 
L 167.879732 212.065862 
L 171.544616 214.823682 
L 175.336885 217.372082 
L 179.243515 219.705981 
L 183.251387 221.821184 
L 187.347353 223.714361 
L 191.518296 225.383028 
L 195.751192 226.825517 
L 200.033162 228.040953 
L 204.351524 229.029212 
L 208.693834 229.790892 
L 213.047928 230.327268 
L 217.401956 230.640258 
L 221.744415 230.732377 
L 226.06417 230.6067 
L 230.350479 230.266814 
L 234.593008 229.716784 
L 238.781844 228.961105 
L 242.907507 228.004668 
L 246.960952 226.852717 
L 250.933572 225.510818 
L 254.817202 223.984815 
L 258.604111 222.280806 
L 262.287001 220.405107 
L 266.297373 218.097825 
L 270.15825 215.590988 
L 273.86112 212.894316 
L 277.398102 210.017704 
L 280.761923 206.971187 
L 283.945892 203.764908 
L 286.943879 200.40909 
L 289.750291 196.914012 
L 292.360049 193.28999 
L 294.768564 189.54736 
L 296.971715 185.696465 
L 298.965825 181.747641 
L 300.747648 177.711216 
L 302.314343 173.597498 
L 303.663461 169.416777 
L 304.79293 165.17932 
L 305.701038 160.895374 
L 306.38643 156.575165 
L 306.848089 152.228906 
L 307.085338 147.866795 
L 307.120034 145.440302 
L 307.120034 145.440302 
" clip-path="url(#p28ca74ce1d)" style="fill: none; stroke: #9400d3; stroke-opacity: 0.5; stroke-width: 10; stroke-linecap: round"/>
   </g>
   <g id="line2d_5">
    <path d="M 307.120034 145.440302 
" clip-path="url(#p28ca74ce1d)" style="fill: none; stroke: #000000; stroke-width: 5; stroke-linecap: round"/>
   </g>
   <g id="line2d_6">
    <path d="M 221.202625 230.732841 
L 225.525813 230.634202 
L 229.816877 230.32088 
L 234.065429 229.79688 
L 238.261504 229.066647 
L 242.395568 228.135025 
L 246.458519 227.007216 
L 250.441698 225.688746 
L 254.336883 224.185427 
L 258.13629 222.503328 
L 261.832567 220.648738 
L 265.858997 218.36422 
L 269.736916 215.87908 
L 273.457743 213.203015 
L 277.013528 210.345903 
L 280.396929 207.317765 
L 283.601194 204.128733 
L 286.620132 200.789024 
L 289.44809 197.30891 
L 292.079934 193.698705 
L 294.511021 189.968744 
L 296.73718 186.129367 
L 298.754685 182.190914 
L 300.560243 178.163713 
L 302.150969 174.058075 
L 303.524371 169.884291 
L 304.678336 165.652632 
L 305.611114 161.373345 
L 306.321308 157.056661 
L 306.807866 152.712793 
L 307.070073 148.35194 
L 307.120034 145.440302 
L 307.120034 145.440302 
" clip-path="url(#p28ca74ce1d)" style="fill: none; stroke: #000000; stroke-width: 5; stroke-linecap: round"/>
   </g>
   <g id="patch_2">
    <path d="M 229.95034 147.654328 
C 230.537507 147.654328 231.100704 147.421045 231.515894 147.005855 
C 231.931083 146.590665 232.164367 146.027468 232.164367 145.440302 
C 232.164367 144.853135 231.931083 144.289938 231.515894 143.874748 
C 231.100704 143.459559 230.537507 143.226275 229.95034 143.226275 
C 229.363174 143.226275 228.799977 143.459559 228.384787 143.874748 
C 227.969597 144.289938 227.736314 144.853135 227.736314 145.440302 
C 227.736314 146.027468 227.969597 146.590665 228.384787 147.005855 
C 228.799977 147.421045 229.363174 147.654328 229.95034 147.654328 
z
" clip-path="url(#p28ca74ce1d)" style="fill: #ff69b4; stroke: #ff69b4; stroke-linejoin: miter"/>
   </g>
  </g>
 </g>
 <defs>
  <clipPath id="p28ca74ce1d">
   <rect x="109.956735" y="34.56" width="222.886529" height="221.76"/>
  </clipPath>
 </defs>
</svg>
