<?xml version="1.0" encoding="utf-8" standalone="no"?>
<!DOCTYPE svg PUBLIC "-//W3C//DTD SVG 1.1//EN"
  "http://www.w3.org/Graphics/SVG/1.1/DTD/svg11.dtd">
<svg xmlns:xlink="http://www.w3.org/1999/xlink" width="432pt" height="288pt" viewBox="0 0 432 288" xmlns="http://www.w3.org/2000/svg" version="1.1">
 <metadata>
  <rdf:RDF xmlns:dc="http://purl.org/dc/elements/1.1/" xmlns:cc="http://creativecommons.org/ns#" xmlns:rdf="http://www.w3.org/1999/02/22-rdf-syntax-ns#">
   <cc:Work>
    <dc:type rdf:resource="http://purl.org/dc/dcmitype/StillImage"/>
    <dc:date>2024-10-15T15:39:43.870680</dc:date>
    <dc:format>image/svg+xml</dc:format>
    <dc:creator>
     <cc:Agent>
      <dc:title>Matplotlib v3.9.0, https://matplotlib.org/</dc:title>
     </cc:Agent>
    </dc:creator>
   </cc:Work>
  </rdf:RDF>
 </metadata>
 <defs>
  <style type="text/css">*{stroke-linejoin: round; stroke-linecap: butt}</style>
 </defs>
 <g id="figure_1">
  <g id="patch_1">
   <path d="M 0 288 
L 432 288 
L 432 0 
L 0 0 
z
" style="fill: #ffffff"/>
  </g>
  <g id="axes_1">
   <g id="line2d_1">
    <path d="M 320.118462 145.440419 
L 320.009431 141.432853 
L 319.681605 137.425191 
L 319.132768 133.417458 
L 318.359215 129.409921 
L 317.355724 125.403222 
L 316.115524 121.398519 
L 314.630255 117.397654 
L 313.033107 113.710275 
L 311.209521 110.031393 
L 309.149126 106.364887 
L 306.840285 102.715773 
L 304.270085 99.09042 
L 301.672377 95.794834 
L 298.831309 92.533436 
L 295.734206 89.315323 
L 292.367637 86.151394 
L 289.06145 83.332991 
L 285.510002 80.581515 
L 281.702167 77.910251 
L 277.626805 75.334546 
L 273.721216 73.112646 
L 269.582485 70.997027 
L 265.203582 69.004123 
L 260.578322 67.152336 
L 255.701689 65.462159 
L 251.153039 64.113759 
L 246.401911 62.928432 
L 241.44875 61.925108 
L 236.295881 61.124174 
L 231.626832 60.606482 
L 226.813054 60.275855 
L 221.861028 60.148434 
L 216.779239 60.240957 
L 211.578409 60.570614 
L 206.271738 61.154868 
L 201.650898 61.871566 
L 196.975646 62.799072 
L 192.259355 63.948005 
L 187.517129 65.32853 
L 182.765853 66.950172 
L 178.02421 68.8216 
L 173.312676 70.950396 
L 168.653469 73.342816 
L 164.827938 75.541305 
L 161.069909 77.927886 
L 157.394651 80.503315 
L 153.81799 83.267258 
L 150.356194 86.218205 
L 147.025842 89.353385 
L 143.84367 92.66869 
L 140.826409 96.158628 
L 137.990597 99.816274 
L 135.35239 103.633256 
L 132.92736 107.599762 
L 130.730284 111.704563 
L 128.77494 115.935067 
L 127.393211 119.400699 
L 126.180076 122.930279 
L 125.140712 126.515721 
L 124.279617 130.148549 
L 123.600558 133.819949 
L 123.106532 137.520829 
L 122.799735 141.241886 
L 122.681538 144.973667 
L 122.75247 148.706642 
L 123.012212 152.43127 
L 123.459605 156.138074 
L 124.092656 159.817705 
L 124.908566 163.461014 
L 125.903756 167.059112 
L 127.073908 170.603432 
L 128.414009 174.085785 
L 130.319455 178.339806 
L 132.469252 182.470796 
L 134.849845 186.465904 
L 137.446639 190.313622 
L 140.244207 194.003851 
L 143.226492 197.527931 
L 146.377017 200.878648 
L 149.679074 204.050224 
L 153.115915 207.038282 
L 156.670916 209.839786 
L 160.327736 212.45298 
L 164.070452 214.877304 
L 167.883674 217.113302 
L 171.752647 219.162527 
L 176.449291 221.378576 
L 181.18326 223.33501 
L 185.93349 225.039 
L 190.680698 226.498877 
L 195.407399 227.723905 
L 200.097901 228.724059 
L 204.73826 229.509826 
L 210.072375 230.170041 
L 215.304906 230.570652 
L 220.421905 230.729157 
L 225.411964 230.662847 
L 230.265986 230.388603 
L 234.976941 229.922751 
L 240.179118 229.175766 
L 245.182505 228.221073 
L 249.984251 227.079414 
L 254.583472 225.770088 
L 259.516498 224.118829 
L 264.197234 222.301107 
L 268.630384 220.337901 
L 272.821904 218.248064 
L 277.204131 215.797949 
L 281.306852 213.232731 
L 285.140941 210.570296 
L 288.717525 207.826211 
L 292.367637 204.729445 
L 295.734206 201.565516 
L 298.831309 198.347402 
L 301.672377 195.086004 
L 304.270085 191.790419 
L 306.840285 188.165066 
L 309.149126 184.515951 
L 311.209521 180.849446 
L 313.033107 177.170563 
L 314.630255 173.483185 
L 316.115524 169.482319 
L 317.355724 165.477617 
L 318.359215 161.470918 
L 319.132768 157.463381 
L 319.681605 153.455648 
L 320.009431 149.447986 
L 320.118462 145.440419 
L 320.118462 145.440419 
" clip-path="url(#pfa9df9d29a)" style="fill: none; stroke-dasharray: 1,1.65; stroke-dashoffset: 0; stroke: #000000"/>
   </g>
   <g id="line2d_2">
    <path d="M 311.209521 180.849446 
L 313.033107 177.170563 
L 314.630255 173.483185 
L 316.115524 169.482319 
L 317.355724 165.477617 
L 318.359215 161.470918 
L 319.132768 157.463381 
L 319.681605 153.455648 
L 320.009431 149.447986 
L 320.118462 145.440419 
L 320.118462 145.440419 
L 320.009431 141.432853 
L 319.681605 137.425191 
L 319.132768 133.417458 
L 318.359215 129.409921 
L 317.355724 125.403222 
L 316.115524 121.398519 
L 314.630255 117.397654 
L 313.033107 113.710275 
L 311.209521 110.031393 
L 311.209521 110.031393 
" clip-path="url(#pfa9df9d29a)" style="fill: none; stroke: #00bfff; stroke-opacity: 0.5; stroke-width: 30; stroke-linecap: round"/>
   </g>
   <g id="line2d_3">
    <path d="M 231.626832 60.606482 
L 230.947879 60.547428 
L 230.265986 60.492236 
L 229.581171 60.440953 
L 228.893451 60.393626 
L 228.202845 60.350303 
L 227.509372 60.31103 
L 226.813054 60.275855 
L 226.11391 60.244827 
L 225.411964 60.217992 
L 224.707239 60.1954 
L 223.999757 60.1771 
L 223.289545 60.163139 
L 222.576626 60.153567 
L 221.861028 60.148434 
L 221.142778 60.147789 
L 220.421905 60.151681 
L 219.698437 60.160161 
L 218.972404 60.173278 
L 218.243839 60.191083 
L 217.512773 60.213626 
L 216.779239 60.240957 
L 216.043272 60.273127 
L 215.304906 60.310187 
L 214.564178 60.352187 
L 213.821126 60.399179 
L 213.075787 60.451214 
L 212.328201 60.508342 
L 211.578409 60.570614 
L 210.826453 60.638083 
L 210.072375 60.710798 
L 209.316219 60.788811 
L 208.55803 60.872174 
L 207.797855 60.960937 
L 207.035742 61.055151 
L 206.271738 61.154868 
L 205.505893 61.260138 
L 204.73826 61.371013 
L 203.968889 61.487542 
L 203.197835 61.609777 
L 202.425153 61.737768 
L 201.650898 61.871566 
L 200.875128 62.01122 
L 200.097901 62.15678 
L 199.319277 62.308296 
L 198.539318 62.465817 
L 197.758087 62.629393 
L 196.975646 62.799072 
L 196.192061 62.974903 
L 195.407399 63.156934 
L 194.621727 63.345212 
L 193.835116 63.539785 
L 193.047634 63.740701 
L 192.259355 63.948005 
L 191.470351 64.161743 
L 190.680698 64.381962 
L 189.890471 64.608706 
L 189.099748 64.842019 
L 188.308607 65.081946 
L 187.517129 65.32853 
L 186.725396 65.581814 
L 185.93349 65.841839 
L 185.141497 66.108647 
" clip-path="url(#pfa9df9d29a)" style="fill: none; stroke: #32cd32; stroke-opacity: 0.5; stroke-width: 20; stroke-linecap: round"/>
   </g>
   <g id="line2d_4">
    <path d="M 185.141497 224.772192 
L 185.93349 225.039 
L 186.725396 225.299025 
L 187.517129 225.552309 
L 188.308607 225.798893 
L 189.099748 226.03882 
L 189.890471 226.272133 
L 190.680698 226.498877 
L 191.470351 226.719096 
L 192.259355 226.932834 
L 193.047634 227.140138 
L 193.835116 227.341053 
L 194.621727 227.535627 
L 195.407399 227.723905 
L 196.192061 227.905936 
L 196.975646 228.081767 
L 197.758087 228.251446 
L 198.539318 228.415021 
L 199.319277 228.572543 
L 200.097901 228.724059 
L 200.875128 228.869619 
L 201.650898 229.009273 
L 202.425153 229.14307 
L 203.197835 229.271061 
L 203.968889 229.393297 
L 204.73826 229.509826 
L 205.505893 229.620701 
L 206.271738 229.725971 
L 207.035742 229.825688 
L 207.797855 229.919902 
L 208.55803 230.008665 
L 209.316219 230.092027 
L 210.072375 230.170041 
L 210.826453 230.242756 
L 211.578409 230.310224 
L 212.328201 230.372497 
L 213.075787 230.429625 
L 213.821126 230.481659 
L 214.564178 230.528651 
L 215.304906 230.570652 
L 216.043272 230.607712 
L 216.779239 230.639882 
L 217.512773 230.667213 
L 218.243839 230.689756 
L 218.972404 230.707561 
L 219.698437 230.720678 
L 220.421905 230.729157 
L 221.142778 230.73305 
L 221.861028 230.732404 
L 222.576626 230.727271 
L 223.289545 230.7177 
L 223.999757 230.703739 
L 224.707239 230.685439 
L 225.411964 230.662847 
L 226.11391 230.636012 
L 226.813054 230.604983 
L 227.509372 230.569809 
L 228.202845 230.530536 
L 228.893451 230.487212 
L 229.581171 230.439886 
L 230.265986 230.388603 
L 230.947879 230.333411 
L 231.626832 230.274356 
" clip-path="url(#pfa9df9d29a)" style="fill: none; stroke: #32cd32; stroke-opacity: 0.5; stroke-width: 20; stroke-linecap: round"/>
   </g>
   <g id="line2d_5">
    <path d="M 296.026689 201.275021 
L 299.099972 198.052551 
L 301.918405 194.787695 
L 304.717188 191.18816 
L 307.242878 187.55834 
L 309.509449 183.905924 
L 311.529602 180.23704 
L 313.314762 176.5565 
L 314.995258 172.560374 
L 316.423146 168.558418 
L 317.608037 164.553119 
L 318.557921 160.546145 
L 319.279208 156.538522 
L 319.776769 152.530793 
L 320.053962 148.523157 
L 320.112658 144.515601 
L 319.953256 140.508018 
L 319.574677 136.500331 
L 318.974366 132.492608 
L 318.14827 128.485191 
L 317.090813 124.478828 
L 315.794859 120.474819 
L 314.251677 116.475188 
L 312.598823 112.789624 
L 310.717056 109.113431 
L 308.59569 105.450755 
L 306.22277 101.806925 
L 303.585062 98.18869 
L 300.922194 94.901619 
L 298.012588 91.651053 
L 296.026689 89.605818 
L 296.026689 89.605818 
" clip-path="url(#pfa9df9d29a)" style="fill: none; stroke: #32cd32; stroke-opacity: 0.5; stroke-width: 20; stroke-linecap: round"/>
   </g>
   <g id="line2d_6">
    <path d="M 122.681538 145.907172 
L 122.799735 149.638953 
L 123.106532 153.36001 
L 123.600558 157.06089 
L 124.279617 160.73229 
L 125.140712 164.365117 
L 126.180076 167.95056 
L 127.393211 171.48014 
L 128.77494 174.945771 
L 130.730284 179.176276 
L 132.92736 183.281076 
L 135.35239 187.247582 
L 137.990597 191.064565 
L 140.826409 194.722211 
L 143.84367 198.212148 
L 147.025842 201.527454 
L 150.356194 204.662633 
L 153.81799 207.613581 
L 157.394651 210.377524 
L 161.069909 212.952952 
L 164.827938 215.339534 
L 168.653469 217.538023 
L 173.312676 219.930443 
L 178.02421 222.059239 
L 182.765853 223.930667 
L 187.517129 225.552309 
L 192.259355 226.932834 
L 196.975646 228.081767 
L 201.650898 229.009273 
L 206.271738 229.725971 
L 211.578409 230.310224 
L 216.779239 230.639882 
L 221.861028 230.732404 
L 226.813054 230.604983 
L 231.626832 230.274356 
L 236.950779 229.668349 
L 242.078884 228.840952 
L 247.006877 227.813792 
L 251.732685 226.607076 
L 256.256074 225.23955 
L 261.104573 223.530336 
L 265.702188 221.661896 
L 270.054082 219.654486 
L 274.166548 217.526281 
L 278.463809 215.039608 
L 282.484781 212.443457 
L 286.240445 209.754992 
L 289.741955 206.98913 
L 293.31331 203.872629 
L 296.605016 200.692728 
L 299.63099 197.461809 
L 302.404464 194.190255 
L 305.156708 190.585064 
L 307.638275 186.950989 
L 309.862929 183.295442 
L 311.843157 179.624314 
L 313.590174 175.942219 
L 315.231115 171.944995 
L 316.621034 167.942386 
L 317.769291 163.936739 
L 318.683628 159.929611 
L 319.370217 155.921947 
L 319.833693 151.914226 
L 320.077187 147.906607 
L 320.118462 145.440419 
L 320.118462 145.440419 
" clip-path="url(#pfa9df9d29a)" style="fill: none; stroke: #9400d3; stroke-opacity: 0.5; stroke-width: 10; stroke-linecap: round"/>
   </g>
   <g id="line2d_7">
    <path d="M 320.118462 145.440419 
" clip-path="url(#pfa9df9d29a)" style="fill: none; stroke: #000000; stroke-width: 5; stroke-linecap: round"/>
   </g>
   <g id="line2d_8">
    <path d="M 311.209521 180.849446 
L 311.37038 180.543284 
L 311.529602 180.23704 
L 311.687192 179.930716 
L 311.843157 179.624314 
L 311.997504 179.317836 
L 312.150238 179.011285 
L 312.301365 178.704663 
L 312.450891 178.397972 
L 312.598823 178.091215 
L 312.745166 177.784393 
L 312.889925 177.477508 
L 313.033107 177.170563 
L 313.174718 176.86356 
L 313.314762 176.5565 
L 313.453246 176.249386 
L 313.590174 175.942219 
L 313.725553 175.635 
L 313.859387 175.327733 
L 313.991682 175.020417 
L 314.122444 174.713056 
L 314.251677 174.405651 
L 314.379386 174.098203 
L 314.505578 173.790713 
L 314.630255 173.483185 
L 314.753425 173.175617 
L 314.875091 172.868014 
L 314.995258 172.560374 
L 315.113931 172.252701 
L 315.231115 171.944995 
L 315.346815 171.637258 
L 315.461034 171.329491 
L 315.573779 171.021694 
L 315.685052 170.71387 
L 315.794859 170.40602 
L 315.903204 170.098144 
L 316.010091 169.790243 
L 316.115524 169.482319 
L 316.219509 169.174373 
L 316.322048 168.866406 
L 316.423146 168.558418 
L 316.522807 168.250411 
L 316.621034 167.942386 
L 316.717833 167.634343 
L 316.813207 167.326283 
L 316.907158 167.018207 
L 316.999693 166.710116 
L 317.090813 166.402011 
L 317.180522 166.093892 
L 317.268825 165.785761 
L 317.355724 165.477617 
L 317.441224 165.169462 
L 317.525327 164.861296 
L 317.608037 164.553119 
L 317.689357 164.244933 
L 317.769291 163.936739 
L 317.847841 163.628535 
L 317.925011 163.320324 
L 318.000804 163.012105 
L 318.075223 162.70388 
L 318.14827 162.395648 
L 318.219949 162.08741 
L 318.290263 161.779166 
L 318.359215 161.470918 
L 318.426806 161.162664 
L 318.493041 160.854407 
L 318.557921 160.546145 
L 318.621449 160.23788 
L 318.683628 159.929611 
L 318.74446 159.62134 
L 318.803947 159.313066 
L 318.862092 159.00479 
L 318.918898 158.696511 
L 318.974366 158.388231 
L 319.028499 158.079949 
L 319.081299 157.771665 
L 319.132768 157.463381 
L 319.182907 157.155095 
L 319.23172 156.846809 
L 319.279208 156.538522 
L 319.325373 156.230235 
L 319.370217 155.921947 
L 319.413741 155.613659 
L 319.455947 155.305371 
L 319.496838 154.997083 
L 319.536414 154.688795 
L 319.574677 154.380508 
L 319.611629 154.072221 
L 319.647271 153.763934 
L 319.681605 153.455648 
L 319.714631 153.147362 
L 319.746352 152.839077 
L 319.776769 152.530793 
L 319.805882 152.222509 
L 319.833693 151.914226 
L 319.860204 151.605943 
L 319.885414 151.297662 
L 319.909325 150.989381 
L 319.931939 150.6811 
L 319.953256 150.372821 
L 319.973276 150.064542 
L 319.992001 149.756264 
L 320.009431 149.447986 
L 320.025568 149.139709 
L 320.040411 148.831433 
L 320.053962 148.523157 
L 320.06622 148.214882 
L 320.077187 147.906607 
L 320.086862 147.598332 
L 320.095247 147.290058 
L 320.102341 146.981785 
L 320.108145 146.673511 
L 320.112658 146.365238 
L 320.115883 146.056965 
L 320.117817 145.748692 
L 320.118462 145.440419 
" clip-path="url(#pfa9df9d29a)" style="fill: none; stroke: #000000; stroke-width: 5; stroke-linecap: round"/>
   </g>
   <g id="patch_2">
    <path d="M 271.104379 147.990188 
C 271.780585 147.990188 272.429187 147.721529 272.907338 147.243378 
C 273.385488 146.765228 273.654148 146.116626 273.654148 145.440419 
C 273.654148 144.764213 273.385488 144.115611 272.907338 143.63746 
C 272.429187 143.15931 271.780585 142.89065 271.104379 142.89065 
C 270.428172 142.89065 269.77957 143.15931 269.30142 143.63746 
C 268.823269 144.115611 268.554609 144.764213 268.554609 145.440419 
C 268.554609 146.116626 268.823269 146.765228 269.30142 147.243378 
C 269.77957 147.721529 270.428172 147.990188 271.104379 147.990188 
z
" clip-path="url(#pfa9df9d29a)" style="fill: #ff69b4; stroke: #ff69b4; stroke-linejoin: miter"/>
   </g>
  </g>
 </g>
 <defs>
  <clipPath id="pfa9df9d29a">
   <rect x="106.343511" y="34.56" width="230.112979" height="221.76"/>
  </clipPath>
 </defs>
</svg>
