<?xml version="1.0" encoding="utf-8" standalone="no"?>
<!DOCTYPE svg PUBLIC "-//W3C//DTD SVG 1.1//EN"
  "http://www.w3.org/Graphics/SVG/1.1/DTD/svg11.dtd">
<svg xmlns:xlink="http://www.w3.org/1999/xlink" width="432pt" height="288pt" viewBox="0 0 432 288" xmlns="http://www.w3.org/2000/svg" version="1.1">
 <metadata>
  <rdf:RDF xmlns:dc="http://purl.org/dc/elements/1.1/" xmlns:cc="http://creativecommons.org/ns#" xmlns:rdf="http://www.w3.org/1999/02/22-rdf-syntax-ns#">
   <cc:Work>
    <dc:type rdf:resource="http://purl.org/dc/dcmitype/StillImage"/>
    <dc:date>2024-10-15T11:14:45.233207</dc:date>
    <dc:format>image/svg+xml</dc:format>
    <dc:creator>
     <cc:Agent>
      <dc:title>Matplotlib v3.9.0, https://matplotlib.org/</dc:title>
     </cc:Agent>
    </dc:creator>
   </cc:Work>
  </rdf:RDF>
 </metadata>
 <defs>
  <style type="text/css">*{stroke-linejoin: round; stroke-linecap: butt}</style>
 </defs>
 <g id="figure_1">
  <g id="patch_1">
   <path d="M 0 288 
L 432 288 
L 432 0 
L 0 0 
z
" style="fill: #ffffff"/>
  </g>
  <g id="axes_1">
   <g id="line2d_1">
    <path d="M 306.831562 145.439301 
L 306.709477 140.881098 
L 306.343487 136.335139 
L 305.734387 131.813657 
L 304.883503 127.328855 
L 303.792694 122.8929 
L 302.464355 118.517902 
L 300.901422 114.215903 
L 299.107376 109.998859 
L 297.086245 105.878624 
L 294.842614 101.866932 
L 292.381626 97.975377 
L 289.708989 94.215391 
L 287.160697 90.992731 
L 284.454922 87.89068 
L 281.596821 84.916854 
L 278.591911 82.07871 
L 275.446078 79.383527 
L 272.165571 76.83839 
L 268.75701 74.45017 
L 265.22738 72.225505 
L 261.584028 70.17078 
L 257.834667 68.292105 
L 253.987365 66.595294 
L 250.050542 65.085839 
L 246.032965 63.768891 
L 241.943733 62.649232 
L 237.792275 61.731251 
L 233.588329 61.018921 
L 229.341931 60.515771 
L 225.063399 60.224863 
L 220.763311 60.148767 
L 216.452486 60.289533 
L 212.141959 60.648674 
L 207.842951 61.227135 
L 203.566847 62.025277 
L 199.32516 63.042856 
L 195.129496 64.279001 
L 190.991524 65.732199 
L 186.922929 67.40028 
L 182.935381 69.280406 
L 179.040485 71.369062 
L 175.249743 73.662045 
L 171.574503 76.154467 
L 168.025916 78.84075 
L 164.614888 81.714632 
L 161.352032 84.769176 
L 158.247617 87.996781 
L 155.311524 91.389193 
L 152.553193 94.937533 
L 149.981582 98.632313 
L 147.605118 102.463468 
L 145.431651 106.420389 
L 143.46842 110.491955 
L 141.722007 114.666576 
L 140.198303 118.932232 
L 138.902476 123.276524 
L 137.838942 127.686722 
L 137.01134 132.149813 
L 136.422509 136.652559 
L 136.074476 141.181554 
L 135.968438 145.723275 
L 136.104763 150.264147 
L 136.482978 154.790598 
L 137.101783 159.289118 
L 137.959048 163.746317 
L 139.051834 168.148983 
L 140.376403 172.484136 
L 141.928243 176.739083 
L 143.702096 180.901471 
L 145.69198 184.959331 
L 147.891229 188.901129 
L 150.292529 192.715807 
L 152.887952 196.392821 
L 155.669003 199.922176 
L 158.626663 203.294461 
L 161.751431 206.500871 
L 165.033378 209.533235 
L 168.462187 212.384033 
L 172.027208 215.046411 
L 175.7175 217.514194 
L 179.521886 219.781889 
L 183.428995 221.844694 
L 187.42731 223.698494 
L 191.505216 225.339856 
L 195.651039 226.766027 
L 199.853093 227.97492 
L 204.099715 228.965104 
L 208.379309 229.735788 
L 212.680376 230.286802 
L 216.991551 230.618582 
L 221.301633 230.732146 
L 225.599613 230.629075 
L 229.874702 230.311486 
L 234.116352 229.782012 
L 238.31428 229.043773 
L 242.458487 228.100356 
L 246.53927 226.955788 
L 250.547245 225.614507 
L 254.473349 224.081344 
L 258.308862 222.361492 
L 262.045406 220.460487 
L 265.674957 218.38418 
L 269.189848 216.138716 
L 272.582777 213.730513 
L 275.846803 211.16624 
L 278.975356 208.452795 
L 281.962229 205.597289 
L 284.801584 202.607024 
L 287.487947 199.489477 
L 290.01621 196.252284 
L 292.66563 192.47712 
L 295.102739 188.571648 
L 297.321892 184.547321 
L 299.318007 180.415748 
L 301.086563 176.188677 
L 302.623591 171.877974 
L 303.925673 167.495608 
L 304.989932 163.053626 
L 305.814034 158.564147 
L 306.396177 154.039342 
L 306.735096 149.491418 
L 306.831562 145.439301 
L 306.831562 145.439301 
" clip-path="url(#pe42ce870c0)" style="fill: none; stroke-dasharray: 1,1.65; stroke-dashoffset: 0; stroke: #000000"/>
   </g>
   <g id="line2d_2">
    <path d="M 147.042426 187.437269 
L 149.368854 191.300881 
L 151.892447 195.03072 
L 154.604917 198.616582 
L 157.497437 202.048833 
L 160.560682 205.318438 
L 163.784876 208.416986 
L 167.159843 211.33671 
L 170.675052 214.070506 
L 174.319665 216.611943 
L 178.082589 218.955271 
L 181.952519 221.095429 
L 185.917989 223.028045 
L 189.967414 224.74943 
L 194.089138 226.256577 
L 198.271474 227.547152 
L 202.502747 228.619479 
L 206.77133 229.472528 
L 211.065685 230.105899 
L 215.374391 230.519804 
L 219.686184 230.715044 
L 223.989979 230.692991 
L 228.274901 230.455565 
L 232.530311 230.005207 
L 236.745822 229.344859 
L 240.911327 228.477936 
L 245.017012 227.4083 
L 249.053369 226.140241 
L 253.011215 224.678444 
L 256.881701 223.02797 
L 260.656317 221.194228 
L 264.326908 219.182954 
L 267.885672 217.000186 
L 271.325169 214.652242 
L 274.638324 212.145699 
L 277.818426 209.487371 
L 280.859133 206.684292 
L 283.754468 203.743694 
L 286.498822 200.672991 
L 289.086948 197.479761 
L 291.805785 193.750547 
L 294.31432 189.887248 
L 296.606717 185.901256 
L 298.677708 181.804132 
L 300.522585 177.607581 
L 302.137196 173.323431 
L 303.51794 168.963617 
L 304.661759 164.540164 
L 305.56614 160.065167 
L 306.229103 155.550783 
L 306.649204 151.009207 
L 306.825532 146.452667 
L 306.757703 141.893405 
L 306.445864 137.343667 
L 305.890693 132.81569 
L 305.093396 128.321684 
L 304.055716 123.873826 
L 302.779927 119.484238 
L 301.268845 115.164981 
L 299.525828 110.928029 
L 297.554784 106.785263 
L 295.360173 102.748443 
L 292.947012 98.829197 
L 290.320886 95.038994 
L 287.812727 91.78739 
L 285.145854 88.654467 
L 282.325331 85.647879 
L 279.356586 82.775124 
L 276.245412 80.043529 
L 272.997968 77.460228 
L 269.62078 75.032147 
L 266.120742 72.765984 
L 262.505112 70.66819 
L 258.781511 68.744946 
L 254.957918 67.002141 
L 251.042667 65.44535 
L 247.044438 64.079813 
L 242.972249 62.910404 
L 238.835446 61.941614 
L 234.643692 61.177523 
L 230.40695 60.621772 
L 226.13547 60.277544 
L 221.839766 60.147531 
L 217.530599 60.233919 
L 213.218952 60.538354 
L 208.916003 61.061928 
L 204.633098 61.805149 
L 200.381722 62.767926 
L 196.17346 63.949546 
L 192.019969 65.348658 
L 187.932935 66.963258 
L 183.924034 68.790676 
L 180.004892 70.827567 
L 176.18704 73.0699 
L 172.481871 75.512958 
L 168.900588 78.151335 
L 165.454163 80.978942 
L 162.153287 83.989008 
L 159.00832 87.174096 
L 156.029243 90.526115 
L 153.225612 94.036338 
L 150.60651 97.69543 
L 148.180499 101.493465 
L 147.042426 103.441334 
L 147.042426 103.441334 
" clip-path="url(#pe42ce870c0)" style="fill: none; stroke: #00bfff; stroke-opacity: 0.5; stroke-width: 30; stroke-linecap: round"/>
   </g>
   <g id="line2d_3">
    <path d="M 294.31432 100.991355 
L 291.805785 97.128055 
L 289.086948 93.398841 
L 286.498822 90.205611 
L 283.754468 87.134908 
L 280.859133 84.19431 
L 277.818426 81.391231 
L 274.638324 78.732904 
L 271.325169 76.226361 
L 267.885672 73.878417 
L 264.326908 71.695648 
L 260.656317 69.684374 
L 256.881701 67.850632 
L 253.011215 66.200158 
L 249.053369 64.738361 
L 245.017012 63.470302 
L 240.911327 62.400667 
L 236.745822 61.533743 
L 232.530311 60.873395 
L 228.274901 60.423038 
L 223.989979 60.185611 
L 219.686184 60.163559 
L 215.374391 60.358799 
L 211.065685 60.772703 
L 206.77133 61.406074 
L 202.502747 62.259123 
L 198.271474 63.33145 
L 194.089138 64.622025 
L 189.967414 66.129173 
L 185.917989 67.850558 
L 181.952519 69.783173 
L 178.082589 71.923331 
L 174.319665 74.26666 
L 170.675052 76.808096 
L 167.159843 79.541892 
L 163.784876 82.461617 
L 160.560682 85.560165 
L 157.497437 88.82977 
L 154.604917 92.26202 
L 151.892447 95.847883 
L 149.368854 99.577722 
L 147.042426 103.441334 
L 144.920865 107.427978 
L 143.011248 111.526412 
L 141.319988 115.724933 
L 139.852797 120.011425 
L 138.614659 124.373399 
L 137.609798 128.79805 
L 136.841654 133.272303 
L 136.312865 137.782874 
L 136.025251 142.316321 
L 135.979802 146.859103 
L 136.176676 151.397641 
L 136.615193 155.918372 
L 137.293845 160.407811 
L 138.210297 164.852607 
L 139.36141 169.239602 
L 140.743249 173.555881 
L 142.351114 177.788832 
L 144.179563 181.926193 
L 146.222439 185.956102 
L 148.472912 189.867137 
L 150.923508 193.648367 
L 153.566156 197.28938 
L 156.392224 200.780327 
L 159.392569 204.111944 
L 162.557579 207.275583 
L 165.877223 210.263235 
L 169.341095 213.067544 
L 172.93847 215.681826 
L 176.658342 218.100075 
L 180.489481 220.316972 
L 184.420475 222.327884 
L 188.43978 224.128869 
L 192.535761 225.716666 
L 196.696737 227.088687 
L 200.911024 228.243012 
L 205.166974 229.17837 
L 209.453009 229.894128 
L 213.757663 230.39027 
L 218.069608 230.667378 
L 222.377688 230.726615 
L 226.670948 230.569695 
L 230.938656 230.198868 
L 235.170329 229.616891 
L 239.355753 228.827004 
L 243.485001 227.832906 
L 247.548449 226.638727 
L 251.536793 225.249009 
L 255.441054 223.668673 
L 259.252596 221.903001 
L 262.96313 219.95761 
L 266.56472 217.838426 
L 270.049792 215.551665 
L 273.411131 213.10381 
L 276.641891 210.501589 
L 279.735591 207.751955 
L 282.686117 204.862067 
L 285.487723 201.839274 
L 288.135026 198.691094 
L 290.922568 195.009074 
L 293.50188 191.189213 
L 294.31432 189.887248 
L 294.31432 189.887248 
" clip-path="url(#pe42ce870c0)" style="fill: none; stroke: #32cd32; stroke-opacity: 0.5; stroke-width: 20; stroke-linecap: round"/>
   </g>
   <g id="line2d_4">
    <path d="M 135.968438 145.723275 
L 136.104763 150.264147 
L 136.482978 154.790598 
L 137.101783 159.289118 
L 137.959048 163.746317 
L 139.051834 168.148983 
L 140.376403 172.484136 
L 141.928243 176.739083 
L 143.702096 180.901471 
L 145.69198 184.959331 
L 147.891229 188.901129 
L 150.292529 192.715807 
L 152.887952 196.392821 
L 155.669003 199.922176 
L 158.626663 203.294461 
L 161.751431 206.500871 
L 165.033378 209.533235 
L 168.462187 212.384033 
L 172.027208 215.046411 
L 175.7175 217.514194 
L 179.521886 219.781889 
L 183.428995 221.844694 
L 187.42731 223.698494 
L 191.505216 225.339856 
L 195.651039 226.766027 
L 199.853093 227.97492 
L 204.099715 228.965104 
L 208.379309 229.735788 
L 212.680376 230.286802 
L 216.991551 230.618582 
L 221.301633 230.732146 
L 225.599613 230.629075 
L 229.874702 230.311486 
L 234.116352 229.782012 
L 238.31428 229.043773 
L 242.458487 228.100356 
L 246.53927 226.955788 
L 250.547245 225.614507 
L 254.473349 224.081344 
L 258.308862 222.361492 
L 262.045406 220.460487 
L 265.674957 218.38418 
L 269.189848 216.138716 
L 272.582777 213.730513 
L 275.846803 211.16624 
L 278.975356 208.452795 
L 281.962229 205.597289 
L 284.801584 202.607024 
L 287.487947 199.489477 
L 290.01621 196.252284 
L 292.66563 192.47712 
L 295.102739 188.571648 
L 297.321892 184.547321 
L 299.318007 180.415748 
L 301.086563 176.188677 
L 302.623591 171.877974 
L 303.925673 167.495608 
L 304.989932 163.053626 
L 305.814034 158.564147 
L 306.396177 154.039342 
L 306.735096 149.491418 
L 306.831562 145.439301 
L 306.831562 145.439301 
" clip-path="url(#pe42ce870c0)" style="fill: none; stroke: #9400d3; stroke-opacity: 0.5; stroke-width: 10; stroke-linecap: round"/>
   </g>
   <g id="line2d_5"/>
   <g id="line2d_6">
    <path d="M 147.042426 187.437269 
L 149.368854 191.300881 
L 151.892447 195.03072 
L 154.604917 198.616582 
L 157.497437 202.048833 
L 160.560682 205.318438 
L 163.784876 208.416986 
L 167.159843 211.33671 
L 170.675052 214.070506 
L 174.319665 216.611943 
L 178.082589 218.955271 
L 181.952519 221.095429 
L 185.917989 223.028045 
L 189.967414 224.74943 
L 194.089138 226.256577 
L 198.271474 227.547152 
L 202.502747 228.619479 
L 206.77133 229.472528 
L 211.065685 230.105899 
L 215.374391 230.519804 
L 219.686184 230.715044 
L 223.989979 230.692991 
L 228.274901 230.455565 
L 232.530311 230.005207 
L 236.745822 229.344859 
L 240.911327 228.477936 
L 245.017012 227.4083 
L 249.053369 226.140241 
L 253.011215 224.678444 
L 256.881701 223.02797 
L 260.656317 221.194228 
L 264.326908 219.182954 
L 267.885672 217.000186 
L 271.325169 214.652242 
L 274.638324 212.145699 
L 277.818426 209.487371 
L 280.859133 206.684292 
L 283.754468 203.743694 
L 286.498822 200.672991 
L 289.086948 197.479761 
L 291.805785 193.750547 
L 294.31432 189.887248 
L 294.31432 189.887248 
" clip-path="url(#pe42ce870c0)" style="fill: none; stroke: #000000; stroke-width: 5; stroke-linecap: round"/>
   </g>
   <g id="patch_2">
    <path d="M 226.269376 147.244681 
C 226.748168 147.244681 227.207415 147.054455 227.545972 146.715898 
C 227.884529 146.37734 228.074756 145.918094 228.074756 145.439301 
C 228.074756 144.960509 227.884529 144.501262 227.545972 144.162705 
C 227.207415 143.824148 226.748168 143.633921 226.269376 143.633921 
C 225.790583 143.633921 225.331337 143.824148 224.992779 144.162705 
C 224.654222 144.501262 224.463996 144.960509 224.463996 145.439301 
C 224.463996 145.918094 224.654222 146.37734 224.992779 146.715898 
C 225.331337 147.054455 225.790583 147.244681 226.269376 147.244681 
z
" clip-path="url(#pe42ce870c0)" style="fill: #ff69b4; stroke: #ff69b4; stroke-linejoin: miter"/>
   </g>
  </g>
 </g>
 <defs>
  <clipPath id="pe42ce870c0">
   <rect x="109.114376" y="34.56" width="224.571247" height="221.76"/>
  </clipPath>
 </defs>
</svg>
